<?xml version="1.0" encoding="UTF-8"?>
<svg version="1.1" xmlns="http://www.w3.org/2000/svg" width="1331" height="250">
<path d="M0 0 C16.83 0 33.66 0 51 0 C51 39.27 51 78.54 51 119 C51.66 119 52.32 119 53 119 C53 120.65 53 122.3 53 124 C53.99 124.33 54.98 124.66 56 125 C56 125.66 56 126.32 56 127 C56.99 127.33 57.98 127.66 59 128 C59 128.66 59 129.32 59 130 C59.5775 130.144375 60.155 130.28875 60.75 130.4375 C62.83333333 130.95833333 64.91666667 131.47916667 67 132 C78.22 132 89.44 132 101 132 C101 88.77 101 45.54 101 1 C116.80435945 -6.90217973 136.33018896 0 154 0 C154 43.89 154 87.78 154 133 C169.84 133 185.68 133 202 133 C202 89.11 202 45.22 202 0 C218.83 0 235.66 0 253 0 C253 57.09 253 114.18 253 173 C201.66289064 173.04030303 201.66289064 173.04030303 180.1640625 173.04882812 C165.31477514 173.05476367 150.46549344 173.06174465 135.61621094 173.07543945 C124.80197282 173.08540816 113.9877393 173.09185865 103.17349672 173.09408849 C97.44772555 173.09539187 91.72196752 173.09845424 85.99620056 173.10573006 C80.60531508 173.11252474 75.21444816 173.11460992 69.82355881 173.11310768 C67.84669774 173.11338246 65.86983603 173.1153671 63.89297867 173.11920547 C61.18949406 173.12419659 58.48607907 173.12297833 55.78259277 173.12025452 C54.61524385 173.12462378 54.61524385 173.12462378 53.42431211 173.12908131 C48.53420601 173.11580751 43.84236206 172.69102449 39 172 C39 171.34 39 170.68 39 170 C37.35 170 35.7 170 34 170 C34 169.34 34 168.68 34 168 C31.36 167.67 28.72 167.34 26 167 C26 166.34 26 165.68 26 165 C24.35 164.67 22.7 164.34 21 164 C21 163.34 21 162.68 21 162 C20.34 162 19.68 162 19 162 C17.64613064 160.34997172 16.31321858 158.6825613 15 157 C14.34 156.67 13.68 156.34 13 156 C13 155.34 13 154.68 13 154 C12.34 154 11.68 154 11 154 C10.67 152.35 10.34 150.7 10 149 C9.34 149 8.68 149 8 149 C7.67 147.02 7.34 145.04 7 143 C6.34 143 5.68 143 5 143 C5 141.68 5 140.36 5 139 C4.34 139 3.68 139 3 139 C1.82428549 135.32589215 1.92633254 131.83070817 2 128 C1.34 128 0.68 128 0 128 C0 85.76 0 43.52 0 0 Z " fill="#008AC9" transform="translate(305,76)"/>
<path d="M0 0 C16.83 0 33.66 0 51 0 C53 2 53 2 53.24050903 4.5942688 C53.2338472 6.23974197 53.2338472 6.23974197 53.22705078 7.91845703 C53.22680908 9.17698486 53.22656738 10.4355127 53.22631836 11.73217773 C53.2162464 13.07405799 53.20591319 14.41593632 53.1953125 15.7578125 C53.19329834 16.97460693 53.19128418 18.19140137 53.18920898 19.44506836 C53.17871837 24.00508373 53.15079599 28.56504552 53.125 33.125 C53.08375 43.31375 53.0425 53.5025 53 64 C73.46 64 93.92 64 115 64 C115 64.66 115 65.32 115 66 C116.175625 65.95875 117.35125 65.9175 118.5625 65.875 C122.65898758 65.86774958 126.09520601 66.72343273 130 68 C131.33130115 68.34135927 132.66358148 68.67925956 134 69 C134 69.66 134 70.32 134 71 C136.31 71.33 138.62 71.66 141 72 C141 72.66 141 73.32 141 74 C143.97 74.495 143.97 74.495 147 75 C147 75.66 147 76.32 147 77 C147.66 77 148.32 77 149 77 C149 77.66 149 78.32 149 79 C149.7425 79.0825 150.485 79.165 151.25 79.25 C154.59290576 80.16170157 155.7241582 81.4305012 158 84 C158.99 84.9590625 158.99 84.9590625 160 85.9375 C166 92.125 166 92.125 166 95 C166.66 95 167.32 95 168 95 C168 95.99 168 96.98 168 98 C168.66 98 169.32 98 170 98 C170.33 99.65 170.66 101.3 171 103 C171.66 103 172.32 103 173 103 C173.33 104.98 173.66 106.96 174 109 C174.66 109 175.32 109 176 109 C176 110.65 176 112.3 176 114 C176.66 114 177.32 114 178 114 C178.33 117.63 178.66 121.26 179 125 C179.66 125 180.32 125 181 125 C182.07111262 132.82932317 182.14918072 140.54249368 182.125 148.4375 C182.12886719 149.69626953 182.13273438 150.95503906 182.13671875 152.25195312 C182.1294375 159.23103317 181.8859919 166.07453025 181 173 C180.34 173 179.68 173 179 173 C178.67 176.63 178.34 180.26 178 184 C177.34 184 176.68 184 176 184 C176 185.65 176 187.3 176 189 C175.34 189 174.68 189 174 189 C173.8453125 190.3303125 173.8453125 190.3303125 173.6875 191.6875 C172.98284093 195.0826755 172.0445434 197.21942098 170 200 C169.34 200 168.68 200 168 200 C167.87625 200.598125 167.7525 201.19625 167.625 201.8125 C167 204 167 204 165 207 C164.34 207 163.68 207 163 207 C162.9175 207.61875 162.835 208.2375 162.75 208.875 C162 211 162 211 160 212.0625 C159.34 212.371875 158.68 212.68125 158 213 C157.67 213.99 157.34 214.98 157 216 C154.4375 217.1875 154.4375 217.1875 152 218 C152 218.66 152 219.32 152 220 C146.58823529 224 146.58823529 224 144 224 C144 224.66 144 225.32 144 226 C140.27034861 228.03435531 138.33094958 229 134 229 C134 229.66 134 230.32 134 231 C131.36 231.33 128.72 231.66 126 232 C126 232.66 126 233.32 126 234 C85.97697355 246.77330631 42.01190308 237 0 237 C0 158.79 0 80.58 0 0 Z M53 104 C53 134.69 53 165.38 53 197 C78.66509598 198.16730757 78.66509598 198.16730757 104 196 C104 195.34 104 194.68 104 194 C104.84884766 193.82210937 104.84884766 193.82210937 105.71484375 193.640625 C110.91705675 192.18222683 115.76565275 189.60839187 119.0625 185.3125 C120.12523504 183.10697159 120.12523504 183.10697159 120 181 C120.66 181 121.32 181 122 181 C122.33 179.35 122.66 177.7 123 176 C123.66 176 124.32 176 125 176 C125.33 173.36 125.66 170.72 126 168 C126.66 168 127.32 168 128 168 C128 165.69 128 163.38 128 161 C128.66 161 129.32 161 130 161 C130.02887236 157.18751574 130.04675492 153.3750593 130.0625 149.5625 C130.07506836 147.92958008 130.07506836 147.92958008 130.08789062 146.26367188 C130.09272461 144.71196289 130.09272461 144.71196289 130.09765625 143.12890625 C130.10551147 141.69140015 130.10551147 141.69140015 130.11352539 140.22485352 C130.2505313 138.02714661 130.2505313 138.02714661 129 137 C128.63239269 134.67182036 128.29758419 132.3381615 128 130 C127.34 130 126.68 130 126 130 C125.505 126.04 125.505 126.04 125 122 C124.34 122 123.68 122 123 122 C122.67 120.35 122.34 118.7 122 117 C121.34 117 120.68 117 120 117 C120 116.34 120 115.68 120 115 C116.54798167 111.69709808 116.54798167 111.69709808 112 111 C112 110.34 112 109.68 112 109 C111.01 109 110.02 109 109 109 C109 108.34 109 107.68 109 107 C108.36191406 106.86722656 107.72382812 106.73445313 107.06640625 106.59765625 C106.24011719 106.42105469 105.41382813 106.24445313 104.5625 106.0625 C103.73878906 105.88847656 102.91507813 105.71445313 102.06640625 105.53515625 C100 105 100 105 99 104 C83.82 104 68.64 104 53 104 Z " fill="#0082C5" transform="translate(781,12)"/>
<path d="M0 0 C4.25414623 -0.02465622 8.50825498 -0.04283899 12.76245117 -0.05493164 C14.21070073 -0.05997101 15.65894517 -0.06680253 17.10717773 -0.07543945 C19.18474588 -0.08752247 21.26224697 -0.09323211 23.33984375 -0.09765625 C24.59144287 -0.10289307 25.84304199 -0.10812988 27.13256836 -0.11352539 C30 0 30 0 31 1 C34.24483615 1.45004138 37.48888101 1.81719274 40.74609375 2.16210938 C46.39968558 2.80718525 51.5964722 4.19882407 57 6 C57 6.66 57 7.32 57 8 C58.65 8 60.3 8 62 8 C62 8.66 62 9.32 62 10 C63.98 10.33 65.96 10.66 68 11 C68 11.66 68 12.32 68 13 C69.65 13.33 71.3 13.66 73 14 C73 14.66 73 15.32 73 16 C73.66 16 74.32 16 75 16 C75 16.66 75 17.32 75 18 C75.556875 18.061875 76.11375 18.12375 76.6875 18.1875 C79.99068042 19.3480769 81.71894733 21.40213446 84 24 C84 24.66 84 25.32 84 26 C84.639375 26.2475 85.27875 26.495 85.9375 26.75 C88 28 88 28 88.75 30.125 C88.8325 30.74375 88.915 31.3625 89 32 C89.66 32 90.32 32 91 32 C91.0825 32.78375 91.165 33.5675 91.25 34.375 C91.4975 35.24125 91.745 36.1075 92 37 C92.66 37.309375 93.32 37.61875 94 37.9375 C94.99 38.4634375 94.99 38.4634375 96 39 C96.75 42.125 96.75 42.125 97 45 C97.66 45 98.32 45 99 45 C99.33 46.98 99.66 48.96 100 51 C100.66 51 101.32 51 102 51 C102 52.65 102 54.3 102 56 C102.66 56 103.32 56 104 56 C105.59191527 63.47956229 106.29777946 70.58369327 106.265625 78.22265625 C106.26753845 79.24878525 106.2694519 80.27491425 106.27142334 81.33213806 C106.27277416 83.48420459 106.26915559 85.63627957 106.26074219 87.78833008 C106.25001594 91.05764264 106.26068119 94.32640721 106.2734375 97.59570312 C106.27211592 99.70052203 106.26955357 101.8053406 106.265625 103.91015625 C106.26967346 104.8739772 106.27372192 105.83779816 106.27789307 106.83082581 C106.22354393 114.8029157 105.40979643 122.69329336 102 130 C101.34 130 100.68 130 100 130 C99.67 131.98 99.34 133.96 99 136 C98.34 136 97.68 136 97 136 C96.814375 137.1446875 96.814375 137.1446875 96.625 138.3125 C96 141 96 141 94 144 C93.34 144 92.68 144 92 144 C91.71125 144.763125 91.4225 145.52625 91.125 146.3125 C90 149 90 149 88 152 C87.34 152 86.68 152 86 152 C86 152.66 86 153.32 86 154 C84.57421875 155.5078125 84.57421875 155.5078125 82.6875 157.125 C81.76517578 157.93324219 81.76517578 157.93324219 80.82421875 158.7578125 C79 160 79 160 76 160 C75.67 160.99 75.34 161.98 75 163 C74.01 163 73.02 163 72 163 C72 163.66 72 164.32 72 165 C71.34 165 70.68 165 70 165 C70 165.66 70 166.32 70 167 C68.39850114 167.67305018 66.79368971 168.33822227 65.1875 169 C64.29417969 169.37125 63.40085937 169.7425 62.48046875 170.125 C60 171 60 171 57 171 C57 171.66 57 172.32 57 173 C55.35 173 53.7 173 52 173 C52 173.66 52 174.32 52 175 C43.80557011 176.60221657 35.96272066 177.29739826 27.62109375 177.265625 C26.48777115 177.26753845 25.35444855 177.2694519 24.18678284 177.27142334 C21.80949682 177.27277434 19.43220316 177.26915444 17.05493164 177.26074219 C13.44335171 177.25001738 9.83226797 177.26068012 6.22070312 177.2734375 C3.89583225 177.27211591 1.57096168 177.26955352 -0.75390625 177.265625 C-2.35124352 177.27169769 -2.35124352 177.27169769 -3.98085022 177.27789307 C-12.68388914 177.22418305 -20.93424253 176.43639905 -29 173 C-29 172.34 -29 171.68 -29 171 C-31.64 170.67 -34.28 170.34 -37 170 C-37 169.34 -37 168.68 -37 168 C-38.65 167.67 -40.3 167.34 -42 167 C-42 166.34 -42 165.68 -42 165 C-42.99 165 -43.98 165 -45 165 C-45 164.34 -45 163.68 -45 163 C-46.65 162.67 -48.3 162.34 -50 162 C-50 161.34 -50 160.68 -50 160 C-50.99 159.67 -51.98 159.34 -53 159 C-53 158.34 -53 157.68 -53 157 C-53.66 157 -54.32 157 -55 157 C-55 156.34 -55 155.68 -55 155 C-55.99 154.67 -56.98 154.34 -58 154 C-58 153.34 -58 152.68 -58 152 C-58.99 151.67 -59.98 151.34 -61 151 C-61 150.34 -61 149.68 -61 149 C-61.66 149 -62.32 149 -63 149 C-66 144.61538462 -66 144.61538462 -66 142 C-66.66 142 -67.32 142 -68 142 C-68.33 140.02 -68.66 138.04 -69 136 C-69.66 136 -70.32 136 -71 136 C-71 135.01 -71 134.02 -71 133 C-71.66 133 -72.32 133 -73 133 C-73.33 130.36 -73.66 127.72 -74 125 C-74.66 125 -75.32 125 -76 125 C-77.10228696 120.59085217 -77.07654536 116.51617599 -77 112 C-77.66 112 -78.32 112 -79 112 C-79.06058594 111.08476562 -79.12117188 110.16953125 -79.18359375 109.2265625 C-79.26738281 108.03804688 -79.35117188 106.84953125 -79.4375 105.625 C-79.51871094 104.44164062 -79.59992188 103.25828125 -79.68359375 102.0390625 C-79.81084936 99.08481099 -79.81084936 99.08481099 -81 97 C-81.09809858 94.32248582 -81.1390397 91.67690283 -81.125 89 C-81.12886719 88.26265625 -81.13273437 87.5253125 -81.13671875 86.765625 C-81.1266598 81.2533196 -81.1266598 81.2533196 -80 79 C-79.77141886 76.9625237 -79.58975722 74.91959697 -79.4375 72.875 C-79.35371094 71.77929688 -79.26992187 70.68359375 -79.18359375 69.5546875 C-79.12300781 68.71164063 -79.06242187 67.86859375 -79 67 C-78.34 67 -77.68 67 -77 67 C-76.67 63.37 -76.34 59.74 -76 56 C-75.34 56 -74.68 56 -74 56 C-73.67 53.36 -73.34 50.72 -73 48 C-72.34 48 -71.68 48 -71 48 C-71 47.01 -71 46.02 -71 45 C-70.34 45 -69.68 45 -69 45 C-68.896875 44.278125 -68.79375 43.55625 -68.6875 42.8125 C-67.93206053 39.72206579 -66.84468685 37.58256159 -65 35 C-64.34 35 -63.68 35 -63 35 C-63 34.01 -63 33.02 -63 32 C-62.34 32 -61.68 32 -61 32 C-60.67 31.01 -60.34 30.02 -60 29 C-59.34 29 -58.68 29 -58 29 C-57.67 28.01 -57.34 27.02 -57 26 C-56.34 26 -55.68 26 -55 26 C-55 25.34 -55 24.68 -55 24 C-54.34 24 -53.68 24 -53 24 C-52.67 23.01 -52.34 22.02 -52 21 C-51.34 21 -50.68 21 -50 21 C-50 20.34 -50 19.68 -50 19 C-48.35 18.67 -46.7 18.34 -45 18 C-44.67 16.68 -44.34 15.36 -44 14 C-42.35 13.67 -40.7 13.34 -39 13 C-39 12.34 -39 11.68 -39 11 C-35.535 10.505 -35.535 10.505 -32 10 C-32 9.34 -32 8.68 -32 8 C-30.68 8 -29.36 8 -28 8 C-28 7.34 -28 6.68 -28 6 C-24.7 5.67 -21.4 5.34 -18 5 C-18 4.34 -18 3.68 -18 3 C-12.03325384 1.67405641 -6.07416385 1.9115413 0 2 C0 1.34 0 0.68 0 0 Z M-7 43 C-7 43.66 -7 44.32 -7 45 C-7.70125 45.020625 -8.4025 45.04125 -9.125 45.0625 C-12.8874818 46.28939624 -14.28843304 48.34236233 -16.66796875 51.40625 C-18 53 -18 53 -20 54 C-20.40729228 56.32156597 -20.74438677 58.6568787 -21 61 C-21.66 61 -22.32 61 -23 61 C-25.04278833 67.03843092 -26.37163063 72.69560074 -26.7890625 79.06640625 C-27 81 -27 81 -28 82 C-28.07325168 84.86267567 -28.09238205 87.700719 -28.0625 90.5625 C-28.05798828 91.36880859 -28.05347656 92.17511719 -28.04882812 93.00585938 C-28.03700518 95.00393756 -28.01906914 97.00197783 -28 99 C-27.34 99 -26.68 99 -26 99 C-26.01160156 99.65226562 -26.02320313 100.30453125 -26.03515625 100.9765625 C-26.08470994 105.7761914 -25.99413751 110.27784685 -25 115 C-24.34 115 -23.68 115 -23 115 C-23 116.32 -23 117.64 -23 119 C-22.34 119 -21.68 119 -21 119 C-20.896875 119.556875 -20.79375 120.11375 -20.6875 120.6875 C-19.85821592 123.4769101 -18.65700944 125.6139064 -17 128 C-16.34 128 -15.68 128 -15 128 C-15 128.66 -15 129.32 -15 130 C-12.36315253 132.39820305 -12.36315253 132.39820305 -9 133 C-9 133.66 -9 134.32 -9 135 C-5.535 135.495 -5.535 135.495 -2 136 C-2 136.66 -2 137.32 -2 138 C1.58117288 138.81811277 4.89195766 139.12844281 8.5625 139.1328125 C9.60664062 139.13410156 10.65078125 139.13539063 11.7265625 139.13671875 C12.80679687 139.13285156 13.88703125 139.12898438 15 139.125 C16.62035156 139.13080078 16.62035156 139.13080078 18.2734375 139.13671875 C19.83964844 139.13478516 19.83964844 139.13478516 21.4375 139.1328125 C22.85869141 139.13112061 22.85869141 139.13112061 24.30859375 139.12939453 C26.96758753 139.00155829 29.40832307 138.59206413 32 138 C32 137.34 32 136.68 32 136 C34.97 135.505 34.97 135.505 38 135 C38 134.34 38 133.68 38 133 C38.66 133 39.32 133 40 133 C40 132.34 40 131.68 40 131 C40.928125 130.9071875 40.928125 130.9071875 41.875 130.8125 C44.27761141 130.171081 44.27761141 130.171081 45.25 127.4375 C45.4975 126.633125 45.745 125.82875 46 125 C46.66 125 47.32 125 48 125 C48.33 123.35 48.66 121.7 49 120 C49.66 120 50.32 120 51 120 C51.33 117.03 51.66 114.06 52 111 C52.66 111 53.32 111 54 111 C54 108.36 54 105.72 54 103 C54.66 103 55.32 103 56 103 C56 94.42 56 85.84 56 77 C55.34 77 54.68 77 54 77 C54.04125 75.783125 54.0825 74.56625 54.125 73.3125 C54.13129929 69.73450422 53.50466644 67.27486224 52 64 C51.63128912 62.34080104 51.28718326 60.6752357 51 59 C50.34 59 49.68 59 49 59 C48.979375 58.29875 48.95875 57.5975 48.9375 56.875 C47.72853452 53.16750586 45.79274972 51.79429233 42.7890625 49.4296875 C41 48 41 48 39.4609375 46.3203125 C37.95723635 44.66475116 37.95723635 44.66475116 35 45 C35 44.34 35 43.68 35 43 C27.87806629 40.45672812 21.54231681 39.52992878 14 39.625 C13.07960938 39.61339844 12.15921875 39.60179687 11.2109375 39.58984375 C4.69549694 39.61737378 -0.87280883 40.81195478 -7 43 Z " fill="#0087C8" transform="translate(1225,73)"/>
<path d="M0 0 C0.92212784 0.00359528 1.84425568 0.00719055 2.79432678 0.01089478 C4.24295105 0.01067574 4.24295105 0.01067574 5.72084045 0.01045227 C8.92952175 0.01115182 12.1381458 0.0189462 15.34681702 0.02676392 C17.56499195 0.02862794 19.78316729 0.03005192 22.00134277 0.03105164 C27.85231148 0.03487801 33.70325554 0.04470931 39.55421448 0.05575562 C45.51958381 0.06596717 51.4849571 0.07054871 57.45033264 0.07559204 C69.16453621 0.08633147 80.87872144 0.10340932 92.59291077 0.12442017 C92.59291077 0.78442017 92.59291077 1.44442017 92.59291077 2.12442017 C93.18459045 2.1128186 93.77627014 2.10121704 94.38587952 2.08926392 C98.59522862 2.04119631 102.48514407 2.06435134 106.59291077 3.12442017 C106.59291077 3.78442017 106.59291077 4.44442017 106.59291077 5.12442017 C107.58291077 5.12442017 108.57291077 5.12442017 109.59291077 5.12442017 C109.59291077 5.78442017 109.59291077 6.44442017 109.59291077 7.12442017 C110.72728577 7.24817017 111.86166077 7.37192017 113.03041077 7.49942017 C114.79384827 7.80879517 114.79384827 7.80879517 116.59291077 8.12442017 C117.08791077 9.11442017 117.08791077 9.11442017 117.59291077 10.12442017 C118.43853577 10.61942017 119.28416077 11.11442017 120.15541077 11.62442017 C121.36197327 12.36692017 121.36197327 12.36692017 122.59291077 13.12442017 C122.59291077 13.78442017 122.59291077 14.44442017 122.59291077 15.12442017 C123.58291077 15.45442017 124.57291077 15.78442017 125.59291077 16.12442017 C125.59291077 17.11442017 125.59291077 18.10442017 125.59291077 19.12442017 C126.25291077 19.12442017 126.91291077 19.12442017 127.59291077 19.12442017 C127.59291077 19.78442017 127.59291077 20.44442017 127.59291077 21.12442017 C128.25291077 21.12442017 128.91291077 21.12442017 129.59291077 21.12442017 C132.28998711 27.6744627 134.12990228 33.00928261 133.59291077 40.12442017 C134.25291077 40.12442017 134.91291077 40.12442017 135.59291077 40.12442017 C135.59291077 53.32442017 135.59291077 66.52442017 135.59291077 80.12442017 C119.09291077 80.12442017 102.59291077 80.12442017 85.59291077 80.12442017 C85.26291077 70.55442017 84.93291077 60.98442017 84.59291077 51.12442017 C83.93291077 51.12442017 83.27291077 51.12442017 82.59291077 51.12442017 C81.57424847 49.46909394 80.57480264 47.80181878 79.59291077 46.12442017 C78.93291077 45.79442017 78.27291077 45.46442017 77.59291077 45.12442017 C77.59291077 44.46442017 77.59291077 43.80442017 77.59291077 43.12442017 C76.45853577 42.98004517 75.32416077 42.83567017 74.15541077 42.68692017 C70.59291077 42.12442017 70.59291077 42.12442017 69.59291077 41.12442017 C61.34291077 40.79442017 53.09291077 40.46442017 44.59291077 40.12442017 C44.59291077 84.01442017 44.59291077 127.90442017 44.59291077 173.12442017 C27.43291077 173.12442017 10.27291077 173.12442017 -7.40708923 173.12442017 C-7.42963429 150.71567544 -7.44806726 128.30693985 -7.45890141 105.89818668 C-7.46406486 95.49418292 -7.4711085 85.09018668 -7.48252869 74.68618774 C-7.49247402 65.62151743 -7.4989423 56.55685257 -7.50117773 47.49217695 C-7.50248509 42.68939409 -7.50557256 37.88662683 -7.51281929 33.08384895 C-7.51957713 28.56875217 -7.52170668 24.05367749 -7.52019691 19.53857613 C-7.52047335 17.87644837 -7.52247987 16.21431991 -7.52629471 14.5521965 C-7.53122827 12.29292324 -7.53008879 10.03373483 -7.52734375 7.77445984 C-7.52826554 6.50699449 -7.52918734 5.23952913 -7.53013706 3.93365574 C-7.30116645 -1.29384327 -4.5768993 0.00754061 0 0 Z " fill="#0082C4" transform="translate(1002.4070892333984,75.87557983398438)"/>
<path d="M0 0 C17.16 0 34.32 0 52 0 C52 57.09 52 114.18 52 173 C34.84 173 17.68 173 0 173 C-1.87912514 171.12087486 -1.12623495 167.89434182 -1.12698364 165.39465332 C-1.12854363 164.69621701 -1.13010362 163.99778069 -1.13171089 163.27817965 C-1.13572316 160.92045814 -1.13253038 158.56280019 -1.12939453 156.20507812 C-1.13074847 154.52184511 -1.13252836 152.8386124 -1.13470459 151.15538025 C-1.13927978 146.57080045 -1.13748901 141.98624304 -1.1343255 137.40166283 C-1.13180234 132.61482048 -1.13413932 127.82798011 -1.13571167 123.0411377 C-1.1375335 115.00089166 -1.13512672 106.9606548 -1.13037109 98.92041016 C-1.12492845 89.61083952 -1.1266911 80.30129078 -1.1321975 70.99172068 C-1.13672826 63.0138297 -1.13737936 55.03594534 -1.13475883 47.05805349 C-1.13319585 42.28658788 -1.13300285 37.51513257 -1.13629532 32.7436676 C-1.1391735 28.25892163 -1.13719932 23.77420403 -1.13140106 19.28946114 C-1.13007318 17.63862213 -1.13046806 15.98778075 -1.13266373 14.33694267 C-1.13537413 12.09304456 -1.13199548 9.84923882 -1.12698364 7.60534668 C-1.12660662 6.34655449 -1.12622959 5.0877623 -1.12584114 3.79082489 C-1 1 -1 1 0 0 Z " fill="#0087C8" transform="translate(602,76)"/>
<path d="M0 0 C2.64 0 5.28 0 8 0 C8 0.66 8 1.32 8 2 C10.475 2.495 10.475 2.495 13 3 C13 3.66 13 4.32 13 5 C15.475 5.495 15.475 5.495 18 6 C18 6.66 18 7.32 18 8 C18.99 8 19.98 8 21 8 C21 8.66 21 9.32 21 10 C22.98 10.33 24.96 10.66 27 11 C27 11.66 27 12.32 27 13 C27.66 13 28.32 13 29 13 C29 13.99 29 14.98 29 16 C30.98 16 32.96 16 35 16 C35 16.66 35 17.32 35 18 C35.66 18 36.32 18 37 18 C37 16.35 37 14.7 37 13 C38.65 13 40.3 13 42 13 C42 12.34 42 11.68 42 11 C42.70125 10.89042969 43.4025 10.78085937 44.125 10.66796875 C48.60547443 9.91919381 52.85899771 9.19830999 57.0625 7.4375 C61.58062867 5.57764662 66.16003802 5.28762069 71 5 C71 4.34 71 3.68 71 3 C74.63 3 78.26 3 82 3 C82 3.66 82 4.32 82 5 C83.1446875 5.185625 83.1446875 5.185625 84.3125 5.375 C87 6 87 6 90 8 C90 8.66 90 9.32 90 10 C92.97 10.495 92.97 10.495 96 11 C96 11.66 96 12.32 96 13 C97.65 13.33 99.3 13.66 101 14 C101 14.66 101 15.32 101 16 C102.65 16 104.3 16 106 16 C106 17.65 106 19.3 106 21 C108.41619823 21.25030977 108.41619823 21.25030977 111 21 C111.99 19.515 111.99 19.515 113 18 C116.82716319 16.14109217 120.91659902 15.15696361 125 14 C126.43897586 13.50426344 127.87640658 13.00402573 129.3125 12.5 C133.496247 11.07421359 137.68231311 10.19477825 142.03125 9.4296875 C143.99280014 9.1872214 143.99280014 9.1872214 145 8 C147.33297433 7.95907063 149.66705225 7.95758277 152 8 C152 8.66 152 9.32 152 10 C154.31 10.33 156.62 10.66 159 11 C159 11.66 159 12.32 159 13 C159.55171875 13.11214844 160.1034375 13.22429688 160.671875 13.33984375 C163.40065211 14.11360773 165.72772943 15.26817694 168.25 16.5625 C169.14203125 17.01753906 170.0340625 17.47257812 170.953125 17.94140625 C171.62859375 18.29074219 172.3040625 18.64007813 173 19 C173 19.66 173 20.32 173 21 C173.99 21 174.98 21 176 21 C176 22.65 176 24.3 176 26 C173.91891315 26.67364661 171.8350329 27.33866798 169.75 28 C168.58984375 28.37125 167.4296875 28.7425 166.234375 29.125 C163 30 163 30 159 30 C159 30.66 159 31.32 159 32 C157.44033782 32.508783 155.87710759 33.00663469 154.3125 33.5 C153.44238281 33.7784375 152.57226562 34.056875 151.67578125 34.34375 C149.00608323 34.99850805 146.73603316 35.11831495 144 35 C144 35.66 144 36.32 144 37 C142.02 37 140.04 37 138 37 C138 36.34 138 35.68 138 35 C137.01 35.495 137.01 35.495 136 36 C135.34786708 38.02463255 135.34786708 38.02463255 135 40 C132.69 40 130.38 40 128 40 C128 40.66 128 41.32 128 42 C123.545 42.495 123.545 42.495 119 43 C119 43.66 119 44.32 119 45 C117.44033782 45.508783 115.87710759 46.00663469 114.3125 46.5 C113.44238281 46.7784375 112.57226562 47.056875 111.67578125 47.34375 C109.00608323 47.99850805 106.73603316 48.11831495 104 48 C104 48.66 104 49.32 104 50 C100.37 50.33 96.74 50.66 93 51 C92.67 50.01 92.34 49.02 92 48 C91.34 48 90.68 48 90 48 C90 49.65 90 51.3 90 53 C87.44114774 54.01031065 84.87859624 55.00840145 82.3125 56 C81.59126953 56.28617188 80.87003906 56.57234375 80.12695312 56.8671875 C76.28959679 58.3390502 73.18433411 59.39614998 69 59 C69 59.66 69 60.32 69 61 C67.4188708 61.50692692 65.83498617 62.00526443 64.25 62.5 C63.36828125 62.7784375 62.4865625 63.056875 61.578125 63.34375 C59 64 59 64 55 64 C55 64.66 55 65.32 55 66 C52.36 66 49.72 66 47 66 C47 65.34 47 64.68 47 64 C45.35 63.67 43.7 63.34 42 63 C42 62.34 42 61.68 42 61 C41.01 61 40.02 61 39 61 C39 60.34 39 59.68 39 59 C37.35 58.67 35.7 58.34 34 58 C34 57.34 34 56.68 34 56 C31.34771188 54.92474806 28.71631546 53.90543849 26 53 C26 52.34 26 51.68 26 51 C25.21625 50.71125 24.4325 50.4225 23.625 50.125 C21 49 21 49 19 47 C17.68252676 46.30251417 16.35085807 45.63040043 15 45 C15 44.34 15 43.68 15 43 C14.01 42.9071875 14.01 42.9071875 13 42.8125 C8.8783325 41.69621505 5.34249498 39.66238434 2 37 C2 36.34 2 35.68 2 35 C-0.97 34.505 -0.97 34.505 -4 34 C-4 33.34 -4 32.68 -4 32 C-4.99 32 -5.98 32 -7 32 C-7 31.34 -7 30.68 -7 30 C-7.66 30 -8.32 30 -9 30 C-9 29.34 -9 28.68 -9 28 C-11.64 27.34 -14.28 26.68 -17 26 C-17 25.34 -17 24.68 -17 24 C-19.65228812 22.92474806 -22.28368454 21.90543849 -25 21 C-25 20.34 -25 19.68 -25 19 C-26.65 18.67 -28.3 18.34 -30 18 C-30 17.34 -30 16.68 -30 16 C-30.99 16 -31.98 16 -33 16 C-33 15.34 -33 14.68 -33 14 C-33.66 14 -34.32 14 -35 14 C-35 13.01 -35 12.02 -35 11 C-32.29120665 9.64560332 -29.99066732 9.93498549 -27 10 C-27 9.34 -27 8.68 -27 8 C-25.27318563 7.49193553 -23.54342021 6.99389533 -21.8125 6.5 C-20.36810547 6.08234375 -20.36810547 6.08234375 -18.89453125 5.65625 C-16.14654124 5.03322392 -13.80401584 4.87697188 -11 5 C-11 4.34 -11 3.68 -11 3 C-7.37 2.67 -3.74 2.34 0 2 C0 1.34 0 0.68 0 0 Z M96 22 C96 22.66 96 23.32 96 24 C99.71888239 23.49287967 102.73454239 22.88391785 106 21 C102.50765756 20.90021879 99.40562852 21.22157062 96 22 Z M46 22 C46.66 22.66 47.32 23.32 48 24 C48 23.34 48 22.68 48 22 C47.34 22 46.68 22 46 22 Z M113 22 C113.33 22.66 113.66 23.32 114 24 C114.66 24 115.32 24 116 24 C116 23.34 116 22.68 116 22 C115.01 22 114.02 22 113 22 Z M50 24 C50 24.66 50 25.32 50 26 C50.66 26 51.32 26 52 26 C52 25.34 52 24.68 52 24 C51.34 24 50.68 24 50 24 Z M91 24 C90.67 24.66 90.34 25.32 90 26 C91.65 26 93.3 26 95 26 C95 25.34 95 24.68 95 24 C93.68 24 92.36 24 91 24 Z M117 24 C117 24.66 117 25.32 117 26 C117.66 26 118.32 26 119 26 C119 25.34 119 24.68 119 24 C118.34 24 117.68 24 117 24 Z M85 26 C89 27 89 27 89 27 Z M80 27 C80 27.66 80 28.32 80 29 C81.32 29 82.64 29 84 29 C84 28.34 84 27.68 84 27 C82.68 27 81.36 27 80 27 Z M122 27 C122 27.66 122 28.32 122 29 C122.66 29 123.32 29 124 29 C124 28.34 124 27.68 124 27 C123.34 27 122.68 27 122 27 Z M59 29 C59 29.66 59 30.32 59 31 C59.66 31 60.32 31 61 31 C60.67 32.32 60.34 33.64 60 35 C61.98 35 63.96 35 66 35 C66 35.66 66 36.32 66 37 C66.99 36.67 67.98 36.34 69 36 C68.67 34.68 68.34 33.36 68 32 C66.35 32 64.7 32 63 32 C63 31.34 63 30.68 63 30 C61.68 29.67 60.36 29.34 59 29 Z M69 30 C69 30.66 69 31.32 69 32 C72.3 31.34 75.6 30.68 79 30 C79 29.67 79 29.34 79 29 C75.50765756 28.90021879 72.40562852 29.22157062 69 30 Z M125 29 C126.37485532 30.54166642 126.37485532 30.54166642 128 32 C128.66 32 129.32 32 130 32 C130 31.34 130 30.68 130 30 C128.35 29.67 126.7 29.34 125 29 Z M131 32 C131 32.66 131 33.32 131 34 C131.66 33.67 132.32 33.34 133 33 C132.34 32.67 131.68 32.34 131 32 Z M53 35 C53 35.66 53 36.32 53 37 C54.32 36.67 55.64 36.34 57 36 C55.68 35.67 54.36 35.34 53 35 Z M43 39 C46.06890187 40.53445094 48.70094266 39.54984289 52 39 C52 38.34 52 37.68 52 37 C48.20442119 37 46.37097383 37.50178941 43 39 Z M69 37 C69 37.66 69 38.32 69 39 C71.475 39.495 71.475 39.495 74 40 C74 39.34 74 38.68 74 38 C72.35 37.67 70.7 37.34 69 37 Z M37 40 C37 40.66 37 41.32 37 42 C37.99 41.67 38.98 41.34 40 41 C39.01 40.67 38.02 40.34 37 40 Z M75 40 C75 40.66 75 41.32 75 42 C75.66 42 76.32 42 77 42 C77 41.34 77 40.68 77 40 C76.34 40 75.68 40 75 40 Z M27 43 C28 45 28 45 28 45 Z M80 43 C80 43.66 80 44.32 80 45 C81.83284443 46.12516085 81.83284443 46.12516085 84 47 C84.99 46.67 85.98 46.34 87 46 C85.7511573 44.4166747 85.7511573 44.4166747 84 43 C82.68 43 81.36 43 80 43 Z " fill="#0080C4" transform="translate(55,28)"/>
<path d="M0 0 C2.31 0.66 4.62 1.32 7 2 C7 2.66 7 3.32 7 4 C7.66 4 8.32 4 9 4 C9 4.66 9 5.32 9 6 C9.7425 6.0825 10.485 6.165 11.25 6.25 C14.53523197 7.14597236 15.74598154 8.51280722 18 11 C18.66 11.33 19.32 11.66 20 12 C20 12.66 20 13.32 20 14 C20.804375 14.309375 21.60875 14.61875 22.4375 14.9375 C25 16 25 16 26 17 C26.08851529 19.59359322 26.11525945 22.16039691 26.09765625 24.75390625 C26.0962413 25.52935287 26.09482635 26.3047995 26.09336853 27.10374451 C26.08775345 29.59003494 26.07519846 32.0762366 26.0625 34.5625 C26.05748694 36.24413933 26.0529237 37.92578006 26.04882812 39.60742188 C26.03777913 43.73831566 26.02050445 47.86914276 26 52 C26.66 52 27.32 52 28 52 C28 53.32 28 54.64 28 56 C22.25 55.125 22.25 55.125 20 54 C20 53.34 20 52.68 20 52 C19.34 52 18.68 52 18 52 C18 51.34 18 50.68 18 50 C16.68 49.67 15.36 49.34 14 49 C14 48.34 14 47.68 14 47 C13.46375 46.7525 12.9275 46.505 12.375 46.25 C9.4176018 44.69347463 6.70275949 42.96564327 4 41 C4 40.34 4 39.68 4 39 C3.34 39 2.68 39 2 39 C2.14029419 41.1462026 2.28738164 43.29196218 2.4375 45.4375 C2.51871094 46.63246094 2.59992187 47.82742187 2.68359375 49.05859375 C2.67656114 51.88570244 2.67656114 51.88570244 4 53 C4.08700342 54.63472882 4.10701063 56.27314055 4.09765625 57.91015625 C4.09443359 58.89951172 4.09121094 59.88886719 4.08789062 60.90820312 C4.07951172 61.94912109 4.07113281 62.99003906 4.0625 64.0625 C4.05798828 65.10728516 4.05347656 66.15207031 4.04882812 67.22851562 C4.03699913 69.8190666 4.02051689 72.40950559 4 75 C5.65 75.33 7.3 75.66 9 76 C9 76.66 9 77.32 9 78 C10.65 78.33 12.3 78.66 14 79 C14 79.66 14 80.32 14 81 C14.928125 81.4640625 14.928125 81.4640625 15.875 81.9375 C17.25 82.625 18.625 83.3125 20 84 C20 84.66 20 85.32 20 86 C21.65 86.33 23.3 86.66 25 87 C25.33 88.32 25.66 89.64 26 91 C27.32 91 28.64 91 30 91 C30 82.42 30 73.84 30 65 C33.75635569 65.75127114 35.83210307 66.24005726 39 68 C38.67 67.34 38.34 66.68 38 66 C37.01 65.67 36.02 65.34 35 65 C35 64.34 35 63.68 35 63 C33.35 62.34 31.7 61.68 30 61 C29.93941406 59.71222656 29.87882812 58.42445313 29.81640625 57.09765625 C29.73201753 55.41925841 29.6473687 53.74087364 29.5625 52.0625 C29.52318359 51.21236328 29.48386719 50.36222656 29.44335938 49.48632812 C29.40146484 48.67744141 29.35957031 47.86855469 29.31640625 47.03515625 C29.26141968 45.91185913 29.26141968 45.91185913 29.20532227 44.76586914 C29.18228937 42.97538674 29.18228937 42.97538674 28 42 C27.91273777 40.21928754 27.89300959 38.4351686 27.90234375 36.65234375 C27.90556641 35.57275391 27.90878906 34.49316406 27.91210938 33.38085938 C27.92467773 31.67639648 27.92467773 31.67639648 27.9375 29.9375 C27.94201172 28.79732422 27.94652344 27.65714844 27.95117188 26.48242188 C27.96300253 23.65489649 27.9794859 20.8274736 28 18 C29.65 18.33 31.3 18.66 33 19 C33.495 20.485 33.495 20.485 34 22 C35.65 22.33 37.3 22.66 39 23 C39 23.66 39 24.32 39 25 C40.65 25.33 42.3 25.66 44 26 C44 26.66 44 27.32 44 28 C44.66 28 45.32 28 46 28 C46 28.66 46 29.32 46 30 C47.98 30.495 47.98 30.495 50 31 C50 31.66 50 32.32 50 33 C50.78375 33.144375 51.5675 33.28875 52.375 33.4375 C55 34 55 34 57 35 C57.0154612 35.85777542 57.0154612 35.85777542 57.03123474 36.73287964 C57.13918315 42.66985786 57.25379042 48.60668071 57.37231445 54.54345703 C57.41570078 56.76087197 57.45737308 58.97832112 57.49731445 61.19580078 C57.55492754 64.37803472 57.61864764 67.56009584 57.68359375 70.7421875 C57.70030624 71.73805878 57.71701874 72.73393005 57.73423767 73.75997925 C57.7641555 75.14118454 57.7641555 75.14118454 57.79467773 76.55029297 C57.81799416 77.76940872 57.81799416 77.76940872 57.84178162 79.01315308 C57.88102414 81.07438267 57.88102414 81.07438267 59 83 C59.15225954 84.47769601 59.24919351 85.96131422 59.31640625 87.4453125 C59.3793689 88.80342041 59.3793689 88.80342041 59.44360352 90.18896484 C59.48283936 91.15785645 59.5220752 92.12674805 59.5625 93.125 C59.6049585 94.10807129 59.64741699 95.09114258 59.69116211 96.10400391 C60.02641011 104.40763133 60.10714055 112.69065526 60 121 C59.01 121 58.02 121 57 121 C57 120.34 57 119.68 57 119 C56.236875 118.896875 55.47375 118.79375 54.6875 118.6875 C51.75105648 117.93631677 50.95087501 117.21690342 49 115 C47.515 114.01 47.515 114.01 46 113 C46 112.34 46 111.68 46 111 C44.35 110.67 42.7 110.34 41 110 C41 109.34 41 108.68 41 108 C40.01 107.67 39.02 107.34 38 107 C38 106.34 38 105.68 38 105 C37.01 105 36.02 105 35 105 C35 104.34 35 103.68 35 103 C33.68 102.67 32.36 102.34 31 102 C31.33 112.23 31.66 122.46 32 133 C28 133 28 133 25 131 C25 130.34 25 129.68 25 129 C24.34 129 23.68 129 23 129 C23 128.34 23 127.68 23 127 C21.68 126.67 20.36 126.34 19 126 C19 125.34 19 124.68 19 124 C18.360625 123.731875 17.72125 123.46375 17.0625 123.1875 C15 122 15 122 14 119 C11.60931266 117.89363605 11.60931266 117.89363605 9 117 C7.515 116.01 7.515 116.01 6 115 C5.5234375 111.77734375 5.5234375 111.77734375 5.375 107.9375 C5.58681708 103.64898349 5.58681708 103.64898349 4 100 C3.91299658 98.36527118 3.89298937 96.72685945 3.90234375 95.08984375 C3.90556641 94.10048828 3.90878906 93.11113281 3.91210938 92.09179688 C3.92048828 91.05087891 3.92886719 90.00996094 3.9375 88.9375 C3.94201172 87.89271484 3.94652344 86.84792969 3.95117188 85.77148438 C3.96300087 83.1809334 3.97948311 80.59049441 4 78 C2.35 77.67 0.7 77.34 -1 77 C-1.33 76.01 -1.66 75.02 -2 74 C-2.8971875 73.814375 -2.8971875 73.814375 -3.8125 73.625 C-7.03850291 72.70328488 -8.15355714 70.70371991 -10 68 C-10 67.34 -10 66.68 -10 66 C-11.65 65.67 -13.3 65.34 -15 65 C-15 64.34 -15 63.68 -15 63 C-15.99 62.67 -16.98 62.34 -18 62 C-18 61.34 -18 60.68 -18 60 C-18.66 60 -19.32 60 -20 60 C-20 59.34 -20 58.68 -20 58 C-20.66 58 -21.32 58 -22 58 C-23.53297297 54.93405406 -23.12131455 51.72888147 -23.09765625 48.3671875 C-23.0962413 47.61535187 -23.09482635 46.86351624 -23.09336853 46.08889771 C-23.08776465 43.6842249 -23.07521157 41.27964473 -23.0625 38.875 C-23.0574855 37.24609509 -23.0529225 35.61718873 -23.04882812 33.98828125 C-23.03779397 29.99215173 -23.02052679 25.99609158 -23 22 C-19.21491327 22.65909471 -16.86543225 23.34682199 -14 26 C-14 26.66 -14 27.32 -14 28 C-13.401875 28.12375 -12.80375 28.2475 -12.1875 28.375 C-10 29 -10 29 -7 31 C-7 31.66 -7 32.32 -7 33 C-6.443125 33.0825 -5.88625 33.165 -5.3125 33.25 C-2.30285794 34.22610013 -0.37845248 35.95188814 2 38 C1.90150757 37.1325415 1.90150757 37.1325415 1.80102539 36.24755859 C1.06285273 29.37828239 0.69772225 22.52728865 0.4375 15.625 C0.39431641 14.55894531 0.35113281 13.49289063 0.30664062 12.39453125 C0.14273681 8.25791124 0 4.14052432 0 0 Z M39 68 C39 68.66 39 69.32 39 70 C39.66 70 40.32 70 41 70 C41 69.34 41 68.68 41 68 C40.34 68 39.68 68 39 68 Z M44 71 C44 71.66 44 72.32 44 73 C44.66 73 45.32 73 46 73 C46 72.34 46 71.68 46 71 C45.34 71 44.68 71 44 71 Z M46 73 C46 73.66 46 74.32 46 75 C48.475 75.495 48.475 75.495 51 76 C51 75.34 51 74.68 51 74 C49.35 73.67 47.7 73.34 46 73 Z " fill="#DA2340" transform="translate(48,109)"/>
<path d="M0 0 C1.18211311 0.00067978 1.18211311 0.00067978 2.3881073 0.00137329 C3.21409424 -0.00198532 4.04008118 -0.00534393 4.89109802 -0.00880432 C7.63564028 -0.01834353 10.38012173 -0.02025891 13.12467957 -0.02133179 C15.02418036 -0.02454229 16.92368089 -0.0279062 18.82318115 -0.03141785 C22.81048659 -0.03741654 26.79777032 -0.03925699 30.78507996 -0.03866577 C35.90453171 -0.0385641 41.02384492 -0.05221792 46.14326382 -0.06943798 C50.06794885 -0.08053444 53.99260015 -0.08258571 57.91729927 -0.08205605 C59.80521688 -0.08323966 61.69313527 -0.08768265 63.58103752 -0.09538841 C66.21734812 -0.10514107 68.85335473 -0.10232911 71.4896698 -0.09628296 C72.27572098 -0.10190247 73.06177216 -0.10752197 73.87164307 -0.11331177 C79.27527033 -0.08167852 79.27527033 -0.08167852 81.50358582 2.14663696 C81.50358582 16.66663696 81.50358582 31.18663696 81.50358582 46.14663696 C52.46358582 46.14663696 23.42358582 46.14663696 -6.49641418 46.14663696 C-6.51703918 38.74226196 -6.53766418 31.33788696 -6.55891418 23.70913696 C-6.56801819 21.36892456 -6.57712219 19.02871216 -6.58650208 16.61758423 C-6.58942112 14.77440447 -6.5919697 12.93122408 -6.59407043 11.08804321 C-6.5991864 10.12152832 -6.60430237 9.15501343 -6.60957336 8.15921021 C-6.60969421 7.24570801 -6.60981506 6.33220581 -6.60993958 5.39102173 C-6.61216019 4.59382217 -6.6143808 3.79662262 -6.6166687 2.9752655 C-6.35241355 -1.04308255 -3.32786699 0.01988728 0 0 Z " fill="#0084C5" transform="translate(680.4964141845703,133.85336303710938)"/>
<path d="M0 0 C1.98 0 3.96 0 6 0 C5.67 13.86 5.34 27.72 5 42 C5.99 42 6.98 42 8 42 C8 41.34 8 40.68 8 40 C8.59167969 39.87882812 9.18335938 39.75765625 9.79296875 39.6328125 C13.23675637 38.90248234 16.48426255 38.2109835 19.75 36.875 C22.30307007 35.88213942 24.28433419 35.8448191 27 36 C27 35.34 27 34.68 27 34 C28.65 34 30.3 34 32 34 C32 33.34 32 32.68 32 32 C33.98 32 35.96 32 38 32 C38.20638953 62.5392995 38.20638953 62.5392995 37 74 C28.57142857 77.42857143 28.57142857 77.42857143 24 77 C24 77.66 24 78.32 24 79 C19.05 79.495 19.05 79.495 14 80 C14 80.66 14 81.32 14 82 C12.35 82 10.7 82 9 82 C9 82.66 9 83.32 9 84 C6.24921116 84.91692961 4.64051087 85.10886083 1.8125 85.0625 C0.554375 85.041875 -0.70375 85.02125 -2 85 C-1.93433838 84.4652002 -1.86867676 83.93040039 -1.80102539 83.37939453 C-0.88709152 75.22700374 -0.6680008 67.06765701 -0.4375 58.875 C-0.39419844 57.42707378 -0.35058094 55.97915698 -0.30664062 54.53125 C-0.20078894 51.02093422 -0.09919761 47.51051087 0 44 C-2.64 44.33 -5.28 44.66 -8 45 C-8 45.66 -8 46.32 -8 47 C-10.64 47.33 -13.28 47.66 -16 48 C-16 48.66 -16 49.32 -16 50 C-17.55966218 50.508783 -19.12289241 51.00663469 -20.6875 51.5 C-21.55761719 51.7784375 -22.42773438 52.056875 -23.32421875 52.34375 C-25.99391677 52.99850805 -28.26396684 53.11831495 -31 53 C-31 53.66 -31 54.32 -31 55 C-31.99 54.67 -32.98 54.34 -34 54 C-34 40.47 -34 26.94 -34 13 C-32.35 12.67 -30.7 12.34 -29 12 C-29 11.34 -29 10.68 -29 10 C-27.44033782 9.491217 -25.87710759 8.99336531 -24.3125 8.5 C-23.44238281 8.2215625 -22.57226562 7.943125 -21.67578125 7.65625 C-19.00608323 7.00149195 -16.73603316 6.88168505 -14 7 C-14 6.34 -14 5.68 -14 5 C-4.58997722 1.55580866 -4.58997722 1.55580866 0 2 C0 1.34 0 0.68 0 0 Z M1 42 C1 42.66 1 43.32 1 44 C1.66 44 2.32 44 3 44 C3 43.34 3 42.68 3 42 C2.34 42 1.68 42 1 42 Z " fill="#F68021" transform="translate(230,55)"/>
<path d="M0 0 C3.33822957 0.61449997 6.02209492 1.34560829 9 3 C9 3.66 9 4.32 9 5 C10.175625 5.4640625 10.175625 5.4640625 11.375 5.9375 C14 7 14 7 16 8 C16 8.66 16 9.32 16 10 C16.763125 10.12375 17.52625 10.2475 18.3125 10.375 C21 11 21 11 24 13 C24 13.66 24 14.32 24 15 C24.99 15 25.98 15 27 15 C27 15.99 27 16.98 27 18 C28.98 18.33 30.96 18.66 33 19 C33 19.66 33 20.32 33 21 C33.99 21 34.98 21 36 21 C36 21.66 36 22.32 36 23 C37.65 23.33 39.3 23.66 41 24 C41 24.66 41 25.32 41 26 C42.65 26.33 44.3 26.66 46 27 C46 27.66 46 28.32 46 29 C46.66 29 47.32 29 48 29 C48 29.66 48 30.32 48 31 C48.804375 31.12375 49.60875 31.2475 50.4375 31.375 C51.7059375 31.684375 51.7059375 31.684375 53 32 C54.28447479 34.56894957 54.19321334 36.53702376 54.28125 39.41015625 C54.33732422 41.01793945 54.33732422 41.01793945 54.39453125 42.65820312 C54.46496465 44.93163688 54.53527674 47.2050744 54.60546875 49.47851562 C54.64285156 50.54908203 54.68023437 51.61964844 54.71875 52.72265625 C54.74904297 53.71015869 54.77933594 54.69766113 54.81054688 55.71508789 C54.74927286 57.96469268 54.74927286 57.96469268 56 59 C56.07313567 61.53049402 56.09247527 64.03304837 56.0625 66.5625 C56.05798828 67.27341797 56.05347656 67.98433594 56.04882812 68.71679688 C56.03700864 70.47790013 56.01907263 72.23896036 56 74 C54.35 74 52.7 74 51 74 C51 73.34 51 72.68 51 72 C49.7934375 71.5978125 49.7934375 71.5978125 48.5625 71.1875 C47.716875 70.795625 46.87125 70.40375 46 70 C45.67 69.01 45.34 68.02 45 67 C43.35 66.67 41.7 66.34 40 66 C40 65.34 40 64.68 40 64 C39.21625 63.690625 38.4325 63.38125 37.625 63.0625 C35 62 35 62 33 61 C33 60.34 33 59.68 33 59 C32.01 59 31.02 59 30 59 C30 58.01 30 57.02 30 56 C28.7625 56.185625 28.7625 56.185625 27.5 56.375 C22.62183723 55.8523397 19.47047853 53.40001196 16 50 C16 49.34 16 48.68 16 48 C14.35 47.67 12.7 47.34 11 47 C11 46.34 11 45.68 11 45 C10.34 45 9.68 45 9 45 C9 55.23 9 65.46 9 76 C9.66 76 10.32 76 11 76 C11 78.97 11 81.94 11 85 C9.35 85 7.7 85 6 85 C6 84.34 6 83.68 6 83 C4.7934375 82.814375 4.7934375 82.814375 3.5625 82.625 C2.2940625 82.315625 2.2940625 82.315625 1 82 C0.505 81.01 0.505 81.01 0 80 C-1.485 79.505 -1.485 79.505 -3 79 C-3 78.34 -3 77.68 -3 77 C-3.66 77 -4.32 77 -5 77 C-5 76.34 -5 75.68 -5 75 C-6.2065625 74.814375 -6.2065625 74.814375 -7.4375 74.625 C-8.283125 74.41875 -9.12875 74.2125 -10 74 C-10.33 73.34 -10.66 72.68 -11 72 C-12.24330078 71.52433594 -12.24330078 71.52433594 -13.51171875 71.0390625 C-16 69 -16 69 -16.50244141 66.87792969 C-16.72571649 64.03556854 -16.79626008 61.22613441 -16.8125 58.375 C-16.83691162 57.35204834 -16.86132324 56.32909668 -16.88647461 55.27514648 C-16.95230443 52.18307376 -16.98196391 49.09268859 -17 46 C-17.00837891 45.09427246 -17.01675781 44.18854492 -17.02539062 43.25537109 C-17.06533797 38.50254522 -17.0574142 33.75261948 -17 29 C-16.34 29 -15.68 29 -15 29 C-15 29.66 -15 30.32 -15 31 C-13.35 31.33 -11.7 31.66 -10 32 C-10 32.66 -10 33.32 -10 34 C-8.35 34.33 -6.7 34.66 -5 35 C-5 35.66 -5 36.32 -5 37 C-4.01 37 -3.02 37 -2 37 C-2 37.66 -2 38.32 -2 39 C-0.35 39.33 1.3 39.66 3 40 C2.67854004 38.84048828 2.35708008 37.68097656 2.02587891 36.48632812 C1.000335 32.37149564 0.68873829 28.4678495 0.5859375 24.21875 C0.56657135 23.51979614 0.5472052 22.82084229 0.5272522 22.10070801 C0.4681785 19.90059036 0.42136527 17.70041828 0.375 15.5 C0.33675343 13.99477071 0.29769799 12.48956175 0.2578125 10.984375 C0.16253875 7.3231043 0.07824644 3.66167878 0 0 Z M27 30 C26.83318891 32.91652174 26.83318891 32.91652174 27 36 C27.66 36.66 28.32 37.32 29 38 C29 35.36 29 32.72 29 30 C28.34 30 27.68 30 27 30 Z M3 40 C3 40.66 3 41.32 3 42 C3.66 42 4.32 42 5 42 C5 41.34 5 40.68 5 40 C4.34 40 3.68 40 3 40 Z " fill="#DB2341" transform="translate(17,44)"/>
<path d="M0 0 C0 0.66 0 1.32 0 2 C0.99 2 1.98 2 3 2 C3 2.66 3 3.32 3 4 C5.475 4.495 5.475 4.495 8 5 C8 5.66 8 6.32 8 7 C10.475 7.495 10.475 7.495 13 8 C13 8.66 13 9.32 13 10 C13.99 10 14.98 10 16 10 C16 10.66 16 11.32 16 12 C16.51820312 11.70351562 17.03640625 11.40703125 17.5703125 11.1015625 C20.61889164 9.71940926 23.60195652 9.07184152 26.875 8.375 C28.06867188 8.11460938 29.26234375 7.85421875 30.4921875 7.5859375 C33.74466875 7.04264999 36.71170995 6.88938474 40 7 C40 6.34 40 5.68 40 5 C44.29 4.67 48.58 4.34 53 4 C53 3.34 53 2.68 53 2 C54.98 2 56.96 2 59 2 C59 2.66 59 3.32 59 4 C60.3303125 4.1546875 60.3303125 4.1546875 61.6875 4.3125 C65.0826755 5.01715907 67.21942098 5.9554566 70 8 C70 8.66 70 9.32 70 10 C71.32 10 72.64 10 74 10 C74 10.66 74 11.32 74 12 C74.94875 12.12375 75.8975 12.2475 76.875 12.375 C80 13 80 13 82 15 C85.08347826 15.16681109 85.08347826 15.16681109 88 15 C88 14.34 88 13.68 88 13 C91.63 12.67 95.26 12.34 99 12 C99 11.34 99 10.68 99 10 C106.90020561 7.47674041 114.88126252 5.29375417 123 8 C123 8.66 123 9.32 123 10 C123.99 10 124.98 10 126 10 C126 10.66 126 11.32 126 12 C128.31 12.33 130.62 12.66 133 13 C133 13.66 133 14.32 133 15 C134.98 15.33 136.96 15.66 139 16 C139 16.66 139 17.32 139 18 C140.65 18.33 142.3 18.66 144 19 C144 20.32 144 21.64 144 23 C141.36 23.33 138.72 23.66 136 24 C136 24.66 136 25.32 136 26 C134.35 26 132.7 26 131 26 C131 26.66 131 27.32 131 28 C128.03 28.33 125.06 28.66 122 29 C122 29.66 122 30.32 122 31 C116.26944418 32.52814822 109.64409459 32.88136486 104 31 C104 30.34 104 29.68 104 29 C102.02 28.67 100.04 28.34 98 28 C98 27.34 98 26.68 98 26 C96.68 26 95.36 26 94 26 C94 25.34 94 24.68 94 24 C92.02 23.67 90.04 23.34 88 23 C88 22.34 88 21.68 88 21 C87.030625 20.87625 86.06125 20.7525 85.0625 20.625 C84.051875 20.41875 83.04125 20.2125 82 20 C81.505 19.01 81.505 19.01 81 18 C79.783125 18.433125 78.56625 18.86625 77.3125 19.3125 C69.84512286 21.79768098 61.92998825 24.30838843 54 24 C54 24.66 54 25.32 54 26 C48.75614911 27.7479503 44.52677733 28.19392201 39 28 C38.773125 27.360625 38.54625 26.72125 38.3125 26.0625 C37.18776024 23.77271129 37.18776024 23.77271129 34.75 23.4375 C33.38875 23.2209375 33.38875 23.2209375 32 23 C29.97762948 22.04605164 27.9717304 21.05464649 26 20 C26 19.34 26 18.68 26 18 C25.34 18 24.68 18 24 18 C24 17.34 24 16.68 24 16 C20.7 16 17.4 16 14 16 C14 16.66 14 17.32 14 18 C12.02 18 10.04 18 8 18 C8 18.66 8 19.32 8 20 C4.37 20.33 0.74 20.66 -3 21 C-3 21.66 -3 22.32 -3 23 C-7.0527516 23.98248524 -10.83861737 24.08159574 -15 24 C-15 24.66 -15 25.32 -15 26 C-19.86318466 27.34513618 -22.2504427 27.19987351 -26.6875 24.6875 C-28.12712515 23.79508583 -29.56471349 22.89937547 -31 22 C-32.32548636 21.31786502 -33.65651498 20.64596458 -35 20 C-35 19.34 -35 18.68 -35 18 C-35.99 18 -36.98 18 -38 18 C-38 17.34 -38 16.68 -38 16 C-39.65 15.67 -41.3 15.34 -43 15 C-43.33 13.68 -43.66 12.36 -44 11 C-42.68 10.67 -41.36 10.34 -40 10 C-40 9.34 -40 8.68 -40 8 C-34.555 7.505 -34.555 7.505 -29 7 C-29 6.34 -29 5.68 -29 5 C-25.7 4.67 -22.4 4.34 -19 4 C-19 3.34 -19 2.68 -19 2 C-17.02 2 -15.04 2 -13 2 C-13 1.34 -13 0.68 -13 0 C-8.38926889 -1.29676812 -4.66159911 -0.71109139 0 0 Z " fill="#0080C5" transform="translate(89,2)"/>
<path d="M0 0 C1.05574219 0.00580078 1.05574219 0.00580078 2.1328125 0.01171875 C7.11262916 0.09471569 11.41607427 0.68035809 16.125 2.25 C16.125 2.91 16.125 3.57 16.125 4.25 C17.115 4.25 18.105 4.25 19.125 4.25 C19.125 4.91 19.125 5.57 19.125 6.25 C20.445 6.58 21.765 6.91 23.125 7.25 C23.62 9.725 23.62 9.725 24.125 12.25 C24.785 12.25 25.445 12.25 26.125 12.25 C26.62 15.22 26.62 15.22 27.125 18.25 C27.785 18.25 28.445 18.25 29.125 18.25 C29.125 24.52 29.125 30.79 29.125 37.25 C28.465 37.25 27.805 37.25 27.125 37.25 C26.9703125 38.3328125 26.9703125 38.3328125 26.8125 39.4375 C26.05706053 42.52793421 24.96968685 44.66743841 23.125 47.25 C22.465 47.25 21.805 47.25 21.125 47.25 C21.125 47.91 21.125 48.57 21.125 49.25 C18.65 49.745 18.65 49.745 16.125 50.25 C16.125 50.91 16.125 51.57 16.125 52.25 C11.00534888 55.34141873 7.04860696 55.71212431 1.25 55.625 C0.48558594 55.63660156 -0.27882813 55.64820313 -1.06640625 55.66015625 C-7.03324281 55.62976489 -12.90264535 54.79689172 -17.60107422 50.77099609 C-18.875 49.25 -18.875 49.25 -18.875 47.25 C-19.865 46.92 -20.855 46.59 -21.875 46.25 C-21.875 45.59 -21.875 44.93 -21.875 44.25 C-22.535 44.25 -23.195 44.25 -23.875 44.25 C-24.205 42.27 -24.535 40.29 -24.875 38.25 C-25.535 38.25 -26.195 38.25 -26.875 38.25 C-29.34040044 30.85379867 -29.85886177 24.70965441 -26.875 17.25 C-26.215 17.25 -25.555 17.25 -24.875 17.25 C-24.813125 16.363125 -24.75125 15.47625 -24.6875 14.5625 C-23.68565479 10.47805414 -22.07404189 8.902864 -18.875 6.25 C-18.215 6.25 -17.555 6.25 -16.875 6.25 C-16.875 5.59 -16.875 4.93 -16.875 4.25 C-15.885 4.25 -14.895 4.25 -13.875 4.25 C-13.875 3.59 -13.875 2.93 -13.875 2.25 C-9.19187966 0.41176585 -4.98035077 -0.06602738 0 0 Z " fill="#F57E21" transform="translate(629.875,-0.25)"/>
<path d="M0 0 C1.05574219 0.00580078 1.05574219 0.00580078 2.1328125 0.01171875 C7.11262916 0.09471569 11.41607427 0.68035809 16.125 2.25 C16.125 2.91 16.125 3.57 16.125 4.25 C16.785 4.25 17.445 4.25 18.125 4.25 C18.125 4.91 18.125 5.57 18.125 6.25 C20.6 6.745 20.6 6.745 23.125 7.25 C23.62 9.725 23.62 9.725 24.125 12.25 C24.785 12.25 25.445 12.25 26.125 12.25 C29.24418803 17.3991358 29.58667638 21.4137905 29.5 27.25 C29.51160156 28.03117187 29.52320313 28.81234375 29.53515625 29.6171875 C29.51011818 34.57472486 28.75580233 37.90708821 26.125 42.25 C25.465 42.25 24.805 42.25 24.125 42.25 C23.795 43.9 23.465 45.55 23.125 47.25 C22.465 47.25 21.805 47.25 21.125 47.25 C21.125 47.91 21.125 48.57 21.125 49.25 C18.65 49.745 18.65 49.745 16.125 50.25 C16.125 50.91 16.125 51.57 16.125 52.25 C10.92421295 55.42732971 6.89394368 55.65383866 1 55.5 C0.20207031 55.49484375 -0.59585937 55.4896875 -1.41796875 55.484375 C-5.08522026 55.43539668 -8.32678899 55.24218677 -11.875 54.25 C-11.875 53.59 -11.875 52.93 -11.875 52.25 C-13.195 52.25 -14.515 52.25 -15.875 52.25 C-17.625 50.875 -17.625 50.875 -18.875 49.25 C-18.875 48.59 -18.875 47.93 -18.875 47.25 C-19.865 46.92 -20.855 46.59 -21.875 46.25 C-21.875 45.59 -21.875 44.93 -21.875 44.25 C-22.535 44.25 -23.195 44.25 -23.875 44.25 C-24.205 42.6 -24.535 40.95 -24.875 39.25 C-25.535 39.25 -26.195 39.25 -26.875 39.25 C-29.28018038 30.6815449 -29.51196765 24.44151889 -25.875 16.25 C-25.400625 15.1775 -24.92625 14.105 -24.4375 13 C-22.85758695 10.21935303 -21.32062642 8.30117055 -18.875 6.25 C-18.215 6.25 -17.555 6.25 -16.875 6.25 C-16.875 5.59 -16.875 4.93 -16.875 4.25 C-15.885 4.25 -14.895 4.25 -13.875 4.25 C-13.875 3.59 -13.875 2.93 -13.875 2.25 C-9.19187966 0.41176585 -4.98035077 -0.06602738 0 0 Z " fill="#C39BB1" transform="translate(480.875,-0.25)"/>
<path d="M0 0 C1.00836914 -0.02610352 1.00836914 -0.02610352 2.03710938 -0.05273438 C7.9333418 -0.04697071 11.76732727 1.72741364 16.9375 4.3125 C16.9375 4.9725 16.9375 5.6325 16.9375 6.3125 C17.9275 6.6425 18.9175 6.9725 19.9375 7.3125 C19.9375 7.9725 19.9375 8.6325 19.9375 9.3125 C20.535625 9.539375 21.13375 9.76625 21.75 10 C25.15215355 12.04129213 26.54722128 14.77527975 27.51171875 18.57421875 C27.99625451 21.6903616 28.0698674 24.65925212 28.0625 27.8125 C28.06636719 29.46765625 28.06636719 29.46765625 28.0703125 31.15625 C27.95075821 33.99742244 27.58675815 36.55057642 26.9375 39.3125 C26.2775 39.3125 25.6175 39.3125 24.9375 39.3125 C24.6075 40.9625 24.2775 42.6125 23.9375 44.3125 C23.2775 44.3125 22.6175 44.3125 21.9375 44.3125 C21.9375 44.9725 21.9375 45.6325 21.9375 46.3125 C20.28747172 47.66636936 18.6200613 48.99928142 16.9375 50.3125 C16.4425 51.3025 16.4425 51.3025 15.9375 52.3125 C14.6175 52.3125 13.2975 52.3125 11.9375 52.3125 C11.9375 52.9725 11.9375 53.6325 11.9375 54.3125 C9.12949386 55.10779242 6.63020241 55.4407074 3.71484375 55.4453125 C2.53631836 55.44724609 2.53631836 55.44724609 1.33398438 55.44921875 C0.52251953 55.44535156 -0.28894531 55.44148438 -1.125 55.4375 C-2.34799805 55.44330078 -2.34799805 55.44330078 -3.59570312 55.44921875 C-4.38009766 55.44792969 -5.16449219 55.44664063 -5.97265625 55.4453125 C-6.68558838 55.44418457 -7.39852051 55.44305664 -8.13305664 55.44189453 C-10.0625 55.3125 -10.0625 55.3125 -13.0625 54.3125 C-13.0625 53.6525 -13.0625 52.9925 -13.0625 52.3125 C-14.0525 52.3125 -15.0425 52.3125 -16.0625 52.3125 C-16.0625 51.6525 -16.0625 50.9925 -16.0625 50.3125 C-17.7125 49.9825 -19.3625 49.6525 -21.0625 49.3125 C-21.0625 48.6525 -21.0625 47.9925 -21.0625 47.3125 C-22.0525 46.9825 -23.0425 46.6525 -24.0625 46.3125 C-24.0625 44.9925 -24.0625 43.6725 -24.0625 42.3125 C-25.0525 41.9825 -26.0425 41.6525 -27.0625 41.3125 C-29.57392345 36.98217186 -29.32909404 32.59971355 -29.25 27.75 C-29.24935547 26.99525391 -29.24871094 26.24050781 -29.24804688 25.46289062 C-29.21993036 21.91708593 -29.01422532 18.72304684 -28.0625 15.3125 C-27.4025 15.3125 -26.7425 15.3125 -26.0625 15.3125 C-26.0625 14.3225 -26.0625 13.3325 -26.0625 12.3125 C-25.4025 12.3125 -24.7425 12.3125 -24.0625 12.3125 C-23.815 11.508125 -23.5675 10.70375 -23.3125 9.875 C-22.0625 7.3125 -22.0625 7.3125 -19.9375 6.5 C-19.31875 6.438125 -18.7 6.37625 -18.0625 6.3125 C-18.0625 5.6525 -18.0625 4.9925 -18.0625 4.3125 C-17.4025 4.3125 -16.7425 4.3125 -16.0625 4.3125 C-16.0625 3.6525 -16.0625 2.9925 -16.0625 2.3125 C-10.71368947 0.52956316 -5.62063972 0.06734407 0 0 Z " fill="#F9B370" transform="translate(557.0625,-0.3125)"/>
<path d="M0 0 C0.680625 -0.00902344 1.36125 -0.01804688 2.0625 -0.02734375 C6.36924125 -0.00220713 9.87216614 0.67879419 13.875 2.25 C13.875 2.91 13.875 3.57 13.875 4.25 C14.865 4.25 15.855 4.25 16.875 4.25 C16.875 4.91 16.875 5.57 16.875 6.25 C17.865 6.58 18.855 6.91 19.875 7.25 C19.875 7.91 19.875 8.57 19.875 9.25 C20.473125 9.45625 21.07125 9.6625 21.6875 9.875 C25.28317404 12.13513797 26.46881199 15.58103703 27.44921875 19.609375 C28.49071703 26.06857536 28.25609851 32.86241937 26.875 39.25 C26.215 39.25 25.555 39.25 24.875 39.25 C24.545 40.9 24.215 42.55 23.875 44.25 C23.215 44.25 22.555 44.25 21.875 44.25 C21.875 44.91 21.875 45.57 21.875 46.25 C20.22497172 47.60386936 18.5575613 48.93678142 16.875 50.25 C16.38 51.24 16.38 51.24 15.875 52.25 C14.555 52.25 13.235 52.25 11.875 52.25 C11.875 52.91 11.875 53.57 11.875 54.25 C7.55619244 55.4576688 3.45886068 55.47118668 -1 55.5 C-1.79019531 55.520625 -2.58039063 55.54125 -3.39453125 55.5625 C-8.41448096 55.59591065 -11.72573739 54.9376524 -16.125 52.25 C-16.125 51.59 -16.125 50.93 -16.125 50.25 C-17.775 49.92 -19.425 49.59 -21.125 49.25 C-21.125 48.59 -21.125 47.93 -21.125 47.25 C-22.115 46.92 -23.105 46.59 -24.125 46.25 C-24.125 44.93 -24.125 43.61 -24.125 42.25 C-24.764375 42.0025 -25.40375 41.755 -26.0625 41.5 C-28.125 40.25 -28.125 40.25 -28.74121094 38.42919922 C-29.38899219 34.75102142 -29.35091981 31.10140908 -29.375 27.375 C-29.395625 26.58480469 -29.41625 25.79460938 -29.4375 24.98046875 C-29.47091065 19.96051904 -28.8126524 16.64926261 -26.125 12.25 C-25.465 12.25 -24.805 12.25 -24.125 12.25 C-23.795 10.6 -23.465 8.95 -23.125 7.25 C-21.475 6.92 -19.825 6.59 -18.125 6.25 C-18.125 5.59 -18.125 4.93 -18.125 4.25 C-17.465 4.25 -16.805 4.25 -16.125 4.25 C-16.125 3.59 -16.125 2.93 -16.125 2.25 C-10.7411441 0.45538137 -5.65662382 0.03108035 0 0 Z " fill="#96BCE6" transform="translate(408.125,-0.25)"/>
<path d="M0 0 C1.06927734 -0.0009668 1.06927734 -0.0009668 2.16015625 -0.00195312 C7.19542014 0.04867567 11.4905038 0.60100127 16.25 2.1875 C16.25 2.8475 16.25 3.5075 16.25 4.1875 C16.91 4.1875 17.57 4.1875 18.25 4.1875 C18.25 4.8475 18.25 5.5075 18.25 6.1875 C18.86875 6.249375 19.4875 6.31125 20.125 6.375 C22.25 7.1875 22.25 7.1875 23.5 9.75 C23.7475 10.554375 23.995 11.35875 24.25 12.1875 C24.91 12.1875 25.57 12.1875 26.25 12.1875 C26.25 13.1775 26.25 14.1675 26.25 15.1875 C26.91 15.1875 27.57 15.1875 28.25 15.1875 C29.39251255 19.30535333 29.47079715 23.31348492 29.5 27.5625 C29.520625 28.305 29.54125 29.0475 29.5625 29.8125 C29.59703414 34.69908146 28.83785966 37.89710109 26.25 42.1875 C25.59 42.1875 24.93 42.1875 24.25 42.1875 C23.92 43.8375 23.59 45.4875 23.25 47.1875 C22.59 47.1875 21.93 47.1875 21.25 47.1875 C21.25 47.8475 21.25 48.5075 21.25 49.1875 C18.775 49.6825 18.775 49.6825 16.25 50.1875 C16.25 50.8475 16.25 51.5075 16.25 52.1875 C15.26 52.1875 14.27 52.1875 13.25 52.1875 C13.25 52.8475 13.25 53.5075 13.25 54.1875 C10.53874217 55.09125261 8.94619541 55.31590471 6.16015625 55.3203125 C5.37576172 55.32160156 4.59136719 55.32289062 3.78320312 55.32421875 C2.96787109 55.32035156 2.15253906 55.31648438 1.3125 55.3125 C0.50103516 55.31636719 -0.31042969 55.32023437 -1.14648438 55.32421875 C-1.93216797 55.32292969 -2.71785156 55.32164063 -3.52734375 55.3203125 C-4.59843384 55.31862061 -4.59843384 55.31862061 -5.69116211 55.31689453 C-7.81783896 55.18323643 -9.70354523 54.76710342 -11.75 54.1875 C-11.75 53.5275 -11.75 52.8675 -11.75 52.1875 C-13.07 52.1875 -14.39 52.1875 -15.75 52.1875 C-17.875 49.75 -17.875 49.75 -19.75 47.1875 C-20.41 46.8575 -21.07 46.5275 -21.75 46.1875 C-21.75 45.5275 -21.75 44.8675 -21.75 44.1875 C-22.41 44.1875 -23.07 44.1875 -23.75 44.1875 C-24.08 42.5375 -24.41 40.8875 -24.75 39.1875 C-25.41 39.1875 -26.07 39.1875 -26.75 39.1875 C-27.64820163 35.3288258 -27.91418356 31.70913233 -27.9375 27.75 C-27.95167969 26.65816406 -27.96585937 25.56632812 -27.98046875 24.44140625 C-27.55277659 18.40297291 -25.39801377 13.97551807 -21.75 9.1875 C-21.09 9.1875 -20.43 9.1875 -19.75 9.1875 C-19.42 8.1975 -19.09 7.2075 -18.75 6.1875 C-18.09 6.1875 -17.43 6.1875 -16.75 6.1875 C-16.75 5.5275 -16.75 4.8675 -16.75 4.1875 C-11.24397979 0.36387485 -6.57628307 -0.0060779 0 0 Z " fill="#CFE5F9" transform="translate(331.75,-0.1875)"/>
<path d="M0 0 C0 13.53 0 27.06 0 41 C-1.65 41 -3.3 41 -5 41 C-5 41.66 -5 42.32 -5 43 C-7.97 43.495 -7.97 43.495 -11 44 C-11 44.66 -11 45.32 -11 46 C-12.65 46 -14.3 46 -16 46 C-16 46.66 -16 47.32 -16 48 C-19.465 48.495 -19.465 48.495 -23 49 C-23 49.66 -23 50.32 -23 51 C-28.95098874 53.21682402 -34.86152818 55.36307418 -41 57 C-42 56 -42 56 -42.11352539 52.03100586 C-42.1133662 50.25894393 -42.10766785 48.4868774 -42.09765625 46.71484375 C-42.0962413 45.78402481 -42.09482635 44.85320587 -42.09336853 43.8941803 C-42.08775172 40.90858809 -42.0751964 37.92306971 -42.0625 34.9375 C-42.05748716 32.91862087 -42.05292388 30.89974057 -42.04882812 28.88085938 C-42.03777683 23.92054428 -42.02050095 18.96028468 -42 14 C-41.34 14 -40.68 14 -40 14 C-40 13.34 -40 12.68 -40 12 C-37.36 11.67 -34.72 11.34 -32 11 C-32 10.34 -32 9.68 -32 9 C-30.58603098 8.49242138 -29.16868271 7.99425075 -27.75 7.5 C-26.96109375 7.2215625 -26.1721875 6.943125 -25.359375 6.65625 C-23 6 -23 6 -19 6 C-19 5.34 -19 4.68 -19 4 C-16.36 3.67 -13.72 3.34 -11 3 C-11 2.34 -11 1.68 -11 1 C-7.09145257 0.08034178 -4.17664661 0 0 0 Z " fill="#F58021" transform="translate(193,115)"/>
<path d="M0 0 C0 13.53 0 27.06 0 41 C-0.66 41 -1.32 41 -2 41 C-2 41.66 -2 42.32 -2 43 C-4.64 43.33 -7.28 43.66 -10 44 C-10 44.66 -10 45.32 -10 46 C-11.26839526 46.50615298 -12.53983102 47.00469099 -13.8125 47.5 C-14.52019531 47.7784375 -15.22789062 48.056875 -15.95703125 48.34375 C-18 49 -18 49 -21 49 C-21 49.66 -21 50.32 -21 51 C-23.64 51.33 -26.28 51.66 -29 52 C-29 52.66 -29 53.32 -29 54 C-33.93367347 56.00691802 -36.55520605 57 -42 57 C-42 42.81 -42 28.62 -42 14 C-40.35 14 -38.7 14 -37 14 C-37 13.34 -37 12.68 -37 12 C-34.36 11.67 -31.72 11.34 -29 11 C-29 10.34 -29 9.68 -29 9 C-26.36 8.67 -23.72 8.34 -21 8 C-21 7.34 -21 6.68 -21 6 C-12.57142857 2.57142857 -12.57142857 2.57142857 -8 3 C-8 2.34 -8 1.68 -8 1 C-5 0 -5 0 0 0 Z " fill="#F58021" transform="translate(150,131)"/>
<path d="M0 0 C1.65 0 3.3 0 5 0 C5 14.19 5 28.38 5 43 C3.35 43 1.7 43 0 43 C0 43.66 0 44.32 0 45 C-0.75023437 45.24234375 -1.50046875 45.4846875 -2.2734375 45.734375 C-9.71288356 48.17046565 -16.97076559 50.8895177 -24.1875 53.91796875 C-28.60531706 55.70015631 -31.01910842 56 -36 56 C-35.67 41.81 -35.34 27.62 -35 13 C-33.35 13 -31.7 13 -30 13 C-30 12.34 -30 11.68 -30 11 C-27.94037148 10.32451422 -25.87715678 9.65995688 -23.8125 9 C-22.66394531 8.62875 -21.51539062 8.2575 -20.33203125 7.875 C-17.35679188 7.09369447 -15.04716104 6.81636694 -12 7 C-12 6.34 -12 5.68 -12 5 C-10.68 5 -9.36 5 -8 5 C-8 4.34 -8 3.68 -8 3 C-5.36 2.67 -2.72 2.34 0 2 C0 1.34 0 0.68 0 0 Z " fill="#F68021" transform="translate(143,84)"/>
<path d="M0 0 C0 13.53 0 27.06 0 41 C-0.66 41 -1.32 41 -2 41 C-2 41.66 -2 42.32 -2 43 C-11.41002278 46.44419134 -11.41002278 46.44419134 -16 46 C-16 46.66 -16 47.32 -16 48 C-18.64 48.33 -21.28 48.66 -24 49 C-24 49.66 -24 50.32 -24 51 C-25.65 51 -27.3 51 -29 51 C-29 51.66 -29 52.32 -29 53 C-32.96 53.66 -36.92 54.32 -41 55 C-40.67 41.14 -40.34 27.28 -40 13 C-39.01 13 -38.02 13 -37 13 C-37 12.34 -37 11.68 -37 11 C-35.68 11 -34.36 11 -33 11 C-33 10.34 -33 9.68 -33 9 C-28.545 8.505 -28.545 8.505 -24 8 C-24 7.34 -24 6.68 -24 6 C-21.36 5.67 -18.72 5.34 -16 5 C-16 4.34 -16 3.68 -16 3 C-14.35 3 -12.7 3 -11 3 C-11 2.34 -11 1.68 -11 1 C-7.09145257 0.08034178 -4.17664661 0 0 0 Z " fill="#F68020" transform="translate(193,70)"/>
<path d="M0 0 C0 12.87 0 25.74 0 39 C-5 41 -5 41 -8 41 C-8 41.66 -8 42.32 -8 43 C-9.12148437 43.39832031 -9.12148437 43.39832031 -10.265625 43.8046875 C-11.25046875 44.15789062 -12.2353125 44.51109375 -13.25 44.875 C-14.22453125 45.22304687 -15.1990625 45.57109375 -16.203125 45.9296875 C-18.93875898 46.91509571 -18.93875898 46.91509571 -21.171875 48.1328125 C-23 49 -23 49 -26 49 C-26 49.66 -26 50.32 -26 51 C-28.64 51.33 -31.28 51.66 -34 52 C-34 52.66 -34 53.32 -34 54 C-35.98 54 -37.96 54 -40 54 C-40.14317235 49.23114211 -40.2855669 44.46226186 -40.42724609 39.69335938 C-40.47553565 38.07160823 -40.52403636 36.44986335 -40.57275391 34.828125 C-40.64281061 32.49480792 -40.71210365 30.16146921 -40.78125 27.828125 C-40.80312378 27.10506165 -40.82499756 26.38199829 -40.84753418 25.63702393 C-40.94213118 22.42215327 -41 19.21673398 -41 16 C-40.34 16 -39.68 16 -39 16 C-39 15.34 -39 14.68 -39 14 C-37.35 14 -35.7 14 -34 14 C-34 13.34 -34 12.68 -34 12 C-30.535 11.505 -30.535 11.505 -27 11 C-27 10.34 -27 9.68 -27 9 C-25.73160474 8.49384702 -24.46016898 7.99530901 -23.1875 7.5 C-22.12595703 7.08234375 -22.12595703 7.08234375 -21.04296875 6.65625 C-19 6 -19 6 -16 6 C-16 5.34 -16 4.68 -16 4 C-13.36 3.67 -10.72 3.34 -8 3 C-8 2.34 -8 1.68 -8 1 C-5 0 -5 0 0 0 Z " fill="#F68020" transform="translate(150,176)"/>
<path d="M0 0 C1.65 0 3.3 0 5 0 C5 12.87 5 25.74 5 39 C2.03 39.495 2.03 39.495 -1 40 C-1 40.66 -1 41.32 -1 42 C-2.32 42 -3.64 42 -5 42 C-5 42.66 -5 43.32 -5 44 C-7.97 44.495 -7.97 44.495 -11 45 C-11 45.66 -11 46.32 -11 47 C-13.64 47.33 -16.28 47.66 -19 48 C-19 48.66 -19 49.32 -19 50 C-20.57967807 50.67528223 -22.16391903 51.33989694 -23.75 52 C-24.63171875 52.37125 -25.5134375 52.7425 -26.421875 53.125 C-29 54 -29 54 -33 54 C-33 41.13 -33 28.26 -33 15 C-32.01 15 -31.02 15 -30 15 C-30 14.34 -30 13.68 -30 13 C-23.5 10 -23.5 10 -19 10 C-19 9.34 -19 8.68 -19 8 C-16.36 7.67 -13.72 7.34 -11 7 C-11 6.34 -11 5.68 -11 5 C-8.36 4.67 -5.72 4.34 -3 4 C-3 3.34 -3 2.68 -3 2 C-2.01 2 -1.02 2 0 2 C0 1.34 0 0.68 0 0 Z " fill="#F68021" transform="translate(188,196)"/>
<path d="M0 0 C1.32 0 2.64 0 4 0 C4.0246826 4.94791294 4.04285166 9.8957902 4.05493164 14.84375 C4.05996653 16.52767562 4.06679481 18.21159686 4.07543945 19.89550781 C4.08754196 22.31316203 4.09323668 24.73075856 4.09765625 27.1484375 C4.10281754 27.9036972 4.10797882 28.65895691 4.11329651 29.43710327 C4.11387171 34.77225659 4.11387171 34.77225659 3 37 C0.67843403 37.40729228 -1.6568787 37.74438677 -4 38 C-4 38.66 -4 39.32 -4 40 C-4.99 40 -5.98 40 -7 40 C-7 40.66 -7 41.32 -7 42 C-8.13888672 42.39832031 -8.13888672 42.39832031 -9.30078125 42.8046875 C-10.29464844 43.15789062 -11.28851563 43.51109375 -12.3125 43.875 C-13.29863281 44.22304687 -14.28476563 44.57109375 -15.30078125 44.9296875 C-18.15594377 45.95305924 -18.15594377 45.95305924 -21 48 C-21.99 48 -22.98 48 -24 48 C-24 48.66 -24 49.32 -24 50 C-25.9914056 50.38133299 -27.99279077 50.71325582 -30 51 C-32.0568946 48.9431054 -31.25747076 44.64444002 -31.31640625 41.80859375 C-31.33718735 40.98875504 -31.35796844 40.16891632 -31.37937927 39.32423401 C-31.44496494 36.69541099 -31.50380126 34.06648496 -31.5625 31.4375 C-31.60567667 29.65949439 -31.64929067 27.88149935 -31.69335938 26.10351562 C-31.80065543 21.73578366 -31.90189704 17.36794773 -32 13 C-30.73160474 12.49384702 -29.46016898 11.99530901 -28.1875 11.5 C-27.47980469 11.2215625 -26.77210938 10.943125 -26.04296875 10.65625 C-24 10 -24 10 -21 10 C-21 9.34 -21 8.68 -21 8 C-19.35 8 -17.7 8 -16 8 C-16 7.34 -16 6.68 -16 6 C-13.36 5.67 -10.72 5.34 -8 5 C-8 4.34 -8 3.68 -8 3 C-5.36 2.67 -2.72 2.34 0 2 C0 1.34 0 0.68 0 0 Z " fill="#F68021" transform="translate(227,145)"/>
<path d="M0 0 C1.65 0 3.3 0 5 0 C5 0.66 5 1.32 5 2 C6.32 2.33 7.64 2.66 9 3 C9 3.66 9 4.32 9 5 C10.65 5.33 12.3 5.66 14 6 C14 6.66 14 7.32 14 8 C14.99 8 15.98 8 17 8 C17 8.66 17 9.32 17 10 C19.475 10.495 19.475 10.495 22 11 C22 11.66 22 12.32 22 13 C24.475 13.495 24.475 13.495 27 14 C27 14.66 27 15.32 27 16 C27.99 16 28.98 16 30 16 C30 30.19 30 44.38 30 59 C28.02 58.67 26.04 58.34 24 58 C24 57.34 24 56.68 24 56 C23.01 56 22.02 56 21 56 C21 55.34 21 54.68 21 54 C19.35 53.67 17.7 53.34 16 53 C16 52.34 16 51.68 16 51 C15.195625 50.731875 14.39125 50.46375 13.5625 50.1875 C12.716875 49.795625 11.87125 49.40375 11 49 C10.505 47.515 10.505 47.515 10 46 C8.35 45.67 6.7 45.34 5 45 C5 44.34 5 43.68 5 43 C4.01 43 3.02 43 2 43 C0.75581306 40.51162612 0.79269326 38.68131426 0.68359375 35.8984375 C0.64161865 34.85743896 0.59964355 33.81644043 0.55639648 32.74389648 C0.51716064 31.63216064 0.4779248 30.5204248 0.4375 29.375 C0.3950415 28.25101807 0.35258301 27.12703613 0.30883789 25.96899414 C0.00068606 17.30788156 -0.11623205 8.6657449 0 0 Z " fill="#D92340" transform="translate(73,81)"/>
<path d="M0 0 C28.38 0 56.76 0 86 0 C86 1.32 86 2.64 86 4 C57.62 4 29.24 4 0 4 C0 2.68 0 1.36 0 0 Z " fill="#0090D1" transform="translate(674,176)"/>
<path d="M0 0 C0.66 0.33 1.32 0.66 2 1 C2.02313912 10.48347252 2.04092312 19.96693536 2.05181217 29.45042992 C2.05703755 33.85368215 2.06412897 38.25691511 2.07543945 42.66015625 C2.08628054 46.90709244 2.09227944 51.15401006 2.09487724 55.40095901 C2.09672928 57.02372149 2.10034568 58.64648292 2.10573006 60.26923752 C2.11295668 62.53677339 2.11399025 64.80423187 2.11352539 67.07177734 C2.115746 68.36417328 2.11796661 69.65656921 2.12025452 70.98812866 C2 74 2 74 1 76 C-14.51 76 -30.02 76 -46 76 C-46 74.02 -46 72.04 -46 70 C-45.01 69.505 -45.01 69.505 -44 69 C-44 70.65 -44 72.3 -44 74 C-29.48 74 -14.96 74 0 74 C-0.33 69.71 -0.66 65.42 -1 61 C-1.07659211 58.71417363 -1.12759868 56.42700108 -1.12939453 54.13989258 C-1.13254669 52.9661055 -1.13569885 51.79231842 -1.13894653 50.58296204 C-1.1369223 49.36577988 -1.13489807 48.14859772 -1.1328125 46.89453125 C-1.13376923 45.60810226 -1.13472595 44.32167328 -1.13571167 42.9962616 C-1.13716944 40.30470548 -1.13509301 37.61318301 -1.13037109 34.92163086 C-1.12461116 31.47060705 -1.1280039 28.01965996 -1.13394356 24.5686388 C-1.138411 21.26059666 -1.13529301 17.95257557 -1.1328125 14.64453125 C-1.13483673 13.40508255 -1.13686096 12.16563385 -1.13894653 10.8886261 C-1.13421829 9.17995613 -1.13421829 9.17995613 -1.12939453 7.43676758 C-1.12859894 6.4322908 -1.12780334 5.42781403 -1.12698364 4.39289856 C-1 2 -1 2 0 0 Z " fill="#009EDB" transform="translate(1043,173)"/>
<path d="M0 0 C14.52 0 29.04 0 44 0 C43.67 1.32 43.34 2.64 43 4 C41.76846191 4.02505615 40.53692383 4.0501123 39.26806641 4.07592773 C34.70952507 4.16992612 30.15113882 4.27016515 25.59277344 4.37231445 C23.61787538 4.41569203 21.64293913 4.457365 19.66796875 4.49731445 C16.8332161 4.55494873 13.99865622 4.6186627 11.1640625 4.68359375 C9.83430893 4.70866249 9.83430893 4.70866249 8.47769165 4.73423767 C4.10074845 4.71085211 4.10074845 4.71085211 0 6 C0 4.02 0 2.04 0 0 Z " fill="#0071BA" transform="translate(511,76)"/>
<path d="M0 0 C0.66 0 1.32 0 2 0 C2 16.5 2 33 2 50 C12.89 50 23.78 50 35 50 C34.505 50.99 34.505 50.99 34 52 C29.31860746 52.02465288 24.63725241 52.04283739 19.95581055 52.05493164 C18.36205386 52.05997157 16.76830181 52.0668035 15.17456055 52.07543945 C12.88849747 52.08751999 10.60249533 52.09323155 8.31640625 52.09765625 C7.59973282 52.10281754 6.88305939 52.10797882 6.14466858 52.11329651 C4.42936328 52.11349263 2.71418734 52.06192007 1 52 C0 51 0 51 -0.12025452 48.94358826 C-0.11803391 48.03979935 -0.11581329 47.13601044 -0.11352539 46.20483398 C-0.11344986 45.18385117 -0.11337433 44.16286835 -0.11329651 43.11094666 C-0.10813522 42.0005452 -0.10297394 40.89014374 -0.09765625 39.74609375 C-0.0962413 38.61551041 -0.09482635 37.48492706 -0.09336853 36.32008362 C-0.08775019 32.69252935 -0.07519458 29.06503576 -0.0625 25.4375 C-0.05748736 22.98502693 -0.05292405 20.5325529 -0.04882812 18.08007812 C-0.0377748 12.05336455 -0.02101884 6.02668661 0 0 Z " fill="#0096D4" transform="translate(832,159)"/>
<path d="M0 0 C0.99 0.33 1.98 0.66 3 1 C2.54658132 2.27259511 2.08704773 3.54301243 1.625 4.8125 C1.24214844 5.87404297 1.24214844 5.87404297 0.8515625 6.95703125 C0 9 0 9 -2 12 C-2.66 12 -3.32 12 -4 12 C-4.0825 12.61875 -4.165 13.2375 -4.25 13.875 C-5 16 -5 16 -7 17.0625 C-7.99 17.5265625 -7.99 17.5265625 -9 18 C-9.33 18.99 -9.66 19.98 -10 21 C-12.5625 22.1875 -12.5625 22.1875 -15 23 C-15 23.66 -15 24.32 -15 25 C-19.0909066 28.31168629 -21.73628638 29.50130606 -27 29 C-25.9816244 26.04671077 -25.29237091 25.14261996 -22.4375 23.75 C-12.21202543 18.54430385 -6.22671491 9.25557623 0 0 Z " fill="#009CD9" transform="translate(948,207)"/>
<path d="M0 0 C1.32 0.33 2.64 0.66 4 1 C2.87548273 3.9719385 1.77706209 6.33440687 0 9 C-0.66 9 -1.32 9 -2 9 C-2 9.66 -2 10.32 -2 11 C-3.42578125 12.5078125 -3.42578125 12.5078125 -5.3125 14.125 C-5.92738281 14.66382813 -6.54226563 15.20265625 -7.17578125 15.7578125 C-9 17 -9 17 -12 17 C-12.33 17.99 -12.66 18.98 -13 20 C-13.99 20 -14.98 20 -16 20 C-16 20.66 -16 21.32 -16 22 C-16.66 22 -17.32 22 -18 22 C-18 22.66 -18 23.32 -18 24 C-18.66 24 -19.32 24 -20 24 C-20.33 22.35 -20.66 20.7 -21 19 C-20.29875 18.5153125 -19.5975 18.030625 -18.875 17.53125 C-11.73920083 12.48965276 -4.8930158 7.33952371 0 0 Z " fill="#009FDB" transform="translate(1313,216)"/>
<path d="M0 0 C0.66 0 1.32 0 2 0 C4.45153075 4.73898266 4.23154206 9.12062333 4.125 14.3125 C4.11597656 15.14845703 4.10695313 15.98441406 4.09765625 16.84570312 C4.07420989 18.89725969 4.03834266 20.94866777 4 23 C4.66 23 5.32 23 6 23 C6 24.32 6 25.64 6 27 C0.25 26.125 0.25 26.125 -2 25 C-2 24.34 -2 23.68 -2 23 C-1.34 23 -0.68 23 0 23 C0.38218767 21.34385343 0.71395102 19.67542976 1 18 C0.67 17.67 0.34 17.34 0 17 C-0.07325168 14.13732433 -0.09238205 11.299281 -0.0625 8.4375 C-0.05798828 7.63119141 -0.05347656 6.82488281 -0.04882812 5.99414062 C-0.03700518 3.99606244 -0.01906914 1.99802217 0 0 Z " fill="#E52346" transform="translate(70,138)"/>
<path d="M0 0 C0.33 0 0.66 0 1 0 C1.06058594 1.14339844 1.12117188 2.28679687 1.18359375 3.46484375 C1.26798428 4.95574305 1.35263302 6.44662775 1.4375 7.9375 C1.47681641 8.69224609 1.51613281 9.44699219 1.55664062 10.22460938 C1.44038024 13.91944187 1.44038024 13.91944187 3 17 C3.07258946 19.18639453 3.08373783 21.37500389 3.0625 23.5625 C3.05347656 24.76003906 3.04445313 25.95757812 3.03515625 27.19140625 C3.02355469 28.11824219 3.01195313 29.04507813 3 30 C1.02 29.67 -0.96 29.34 -3 29 C-2.625 27.0625 -2.625 27.0625 -2 25 C-1.34 24.67 -0.68 24.34 0 24 C-0.33 23.01 -0.66 22.02 -1 21 C-1.09235429 19.45785766 -1.13067655 17.9120913 -1.1328125 16.3671875 C-1.13410156 15.47902344 -1.13539062 14.59085938 -1.13671875 13.67578125 C-1.13285156 12.75152344 -1.12898438 11.82726562 -1.125 10.875 C-1.12886719 9.94300781 -1.13273437 9.01101562 -1.13671875 8.05078125 C-1.13542969 7.16519531 -1.13414063 6.27960938 -1.1328125 5.3671875 C-1.13168457 4.55362793 -1.13055664 3.74006836 -1.12939453 2.90185547 C-1 1 -1 1 0 0 Z " fill="#E82349" transform="translate(100,110)"/>
<path d="M0 0 C0.33 0 0.66 0 1 0 C1.33 5.61 1.66 11.22 2 17 C-3 18 -3 18 -4.75 16.875 C-6.26012724 14.60980914 -6.63803085 12.67857172 -7 10 C-4.525 11.485 -4.525 11.485 -2 13 C-1.93941406 12.14535156 -1.87882812 11.29070312 -1.81640625 10.41015625 C-1.73261719 9.30542969 -1.64882812 8.20070312 -1.5625 7.0625 C-1.48128906 5.96035156 -1.40007812 4.85820312 -1.31640625 3.72265625 C-1 1 -1 1 0 0 Z " fill="#EE244C" transform="translate(76,221)"/>
<path d="M0 0 C0 0.66 0 1.32 0 2 C1.65 2 3.3 2 5 2 C5 3.65 5 5.3 5 7 C1.7 7.33 -1.6 7.66 -5 8 C-4.67 6.68 -4.34 5.36 -4 4 C-4.33 3.01 -4.66 2.02 -5 1 C-2 0 -2 0 0 0 Z " fill="#008BCD" transform="translate(156,42)"/>
<path d="M0 0 C2.31 0.33 4.62 0.66 7 1 C7 1.66 7 2.32 7 3 C7.99 3 8.98 3 10 3 C10 4.65 10 6.3 10 8 C8.35 7.67 6.7 7.34 5 7 C5 6.34 5 5.68 5 5 C3.35 4.67 1.7 4.34 0 4 C0 2.68 0 1.36 0 0 Z " fill="#008ECF" transform="translate(221,46)"/>
<path d="M0 0 C0.66 0.33 1.32 0.66 2 1 C2 6.94 2 12.88 2 19 C1.01 19.33 0.02 19.66 -1 20 C-1.10152799 13.2314676 -1.03026944 6.69675136 0 0 Z " fill="#E92448" transform="translate(77,102)"/>
<path d="M0 0 C0.99 0 1.98 0 3 0 C3 1.65 3 3.3 3 5 C4.32 5.33 5.64 5.66 7 6 C7.33 7.65 7.66 9.3 8 11 C7.01 11 6.02 11 5 11 C5 10.34 5 9.68 5 9 C2.525 8.01 2.525 8.01 0 7 C0 4.69 0 2.38 0 0 Z " fill="#E7224B" transform="translate(78,163)"/>
<path d="M0 0 C1.29640378 0.59393382 2.58698839 1.20057989 3.875 1.8125 C4.59429688 2.14894531 5.31359375 2.48539062 6.0546875 2.83203125 C8 4 8 4 10 7 C9.01 7.66 8.02 8.32 7 9 C4.3125 8.125 4.3125 8.125 2 7 C2 6.34 2 5.68 2 5 C1.34 4.67 0.68 4.34 0 4 C0 2.68 0 1.36 0 0 Z " fill="#EA234C" transform="translate(26,84)"/>
<path d="M0 0 C0.99 0.66 1.98 1.32 3 2 C3 2.66 3 3.32 3 4 C3.66 4 4.32 4 5 4 C5 5.32 5 6.64 5 8 C-0.75 7.125 -0.75 7.125 -3 6 C-3 5.34 -3 4.68 -3 4 C-2.34 4 -1.68 4 -1 4 C-0.67 2.68 -0.34 1.36 0 0 Z " fill="#EE214E" transform="translate(71,157)"/>
<path d="M0 0 C0.66 0.33 1.32 0.66 2 1 C-2.62 5.62 -7.24 10.24 -12 15 C-12.33 14.01 -12.66 13.02 -13 12 C-12.01 11.67 -11.02 11.34 -10 11 C-9.67 10.01 -9.34 9.02 -9 8 C-8.34 8 -7.68 8 -7 8 C-7 7.34 -7 6.68 -7 6 C-6.34 6 -5.68 6 -5 6 C-4.67 5.01 -4.34 4.02 -4 3 C-3.34 3 -2.68 3 -2 3 C-2 2.34 -2 1.68 -2 1 C-1.34 0.67 -0.68 0.34 0 0 Z " fill="#0074B9" transform="translate(1177,91)"/>
<path d="M0 0 C2.00792848 3.01189272 2.88398716 5.58221068 4 9 C4.63815344 10.34721283 5.29325371 11.68747118 6 13 C1.25 11.125 1.25 11.125 -1 10 C-1.125 2.25 -1.125 2.25 0 0 Z " fill="#EB234B" transform="translate(53,138)"/>
<path d="M0 0 C-0.33 0.66 -0.66 1.32 -1 2 C-1.66 2 -2.32 2 -3 2 C-3 2.66 -3 3.32 -3 4 C-2.01 4 -1.02 4 0 4 C0 5.32 0 6.64 0 8 C-0.66 8 -1.32 8 -2 8 C-2 7.34 -2 6.68 -2 6 C-2.99 6 -3.98 6 -5 6 C-5 5.34 -5 4.68 -5 4 C-5.66 4 -6.32 4 -7 4 C-7 3.01 -7 2.02 -7 1 C-4.53721199 -0.231394 -2.7204945 -0.07159196 0 0 Z " fill="#0072BC" transform="translate(27,38)"/>
<path d="M0 0 C0 1.98 0 3.96 0 6 C-1.65 6 -3.3 6 -5 6 C-5.33 4.35 -5.66 2.7 -6 1 C-3.92446352 0.4465236 -2.15634036 0 0 0 Z " fill="#E7224C" transform="translate(28,123)"/>
<path d="M0 0 C0.66 0.33 1.32 0.66 2 1 C1.04367001 2.29315061 0.08486149 3.58446853 -0.875 4.875 C-1.40867187 5.59429688 -1.94234375 6.31359375 -2.4921875 7.0546875 C-4 9 -4 9 -6 11 C-6.8125 9.3125 -6.8125 9.3125 -7 7 C-4.6875 4.25 -4.6875 4.25 -2 2 C-1.34 2 -0.68 2 0 2 C0 1.34 0 0.68 0 0 Z " fill="#F06724" transform="translate(613,4)"/>
<path d="M0 0 C0.66 0.33 1.32 0.66 2 1 C1.67 2.65 1.34 4.3 1 6 C0.34 6 -0.32 6 -1 6 C-1.33 6.66 -1.66 7.32 -2 8 C-2.66 8 -3.32 8 -4 8 C-3.6875 5.125 -3.6875 5.125 -3 2 C-2.01 1.34 -1.02 0.68 0 0 Z " fill="#0094CE" transform="translate(907,186)"/>
<path d="M0 0 C2.475 0.495 2.475 0.495 5 1 C5 4 5 4 4 6 C2.68 6 1.36 6 0 6 C0 4.02 0 2.04 0 0 Z " fill="#D22537" transform="translate(78,174)"/>
<path d="M0 0 C0.66 0.33 1.32 0.66 2 1 C2 1.66 2 2.32 2 3 C2.66 3 3.32 3 4 3 C4 4.32 4 5.64 4 7 C2.35 6.67 0.7 6.34 -1 6 C-1.042721 4.33388095 -1.04063832 2.66617115 -1 1 C-0.67 0.67 -0.34 0.34 0 0 Z " fill="#E42248" transform="translate(55,218)"/>
<path d="M0 0 C0.66 0.33 1.32 0.66 2 1 C2.18451025 11.55808656 2.18451025 11.55808656 1 16 C0.67 16 0.34 16 0 16 C-0.19389096 13.5211787 -0.38040123 11.04219069 -0.5625 8.5625 C-0.61857422 7.85544922 -0.67464844 7.14839844 -0.73242188 6.41992188 C-0.86190993 4.61572163 -0.93521608 2.80768048 -1 1 C-0.67 0.67 -0.34 0.34 0 0 Z " fill="#008ED2" transform="translate(1043,155)"/>
<path d="M0 0 C0.33 0.66 0.66 1.32 1 2 C1.66 2 2.32 2 3 2 C2.75 3.875 2.75 3.875 2 6 C-0.0625 7.25 -0.0625 7.25 -2 8 C-2.33 6.68 -2.66 5.36 -3 4 C-2.34 3.67 -1.68 3.34 -1 3 C-0.67 2.01 -0.34 1.02 0 0 Z " fill="#0082D7" transform="translate(113,57)"/>
<path d="M0 0 C1.98 0 3.96 0 6 0 C6.33 1.32 6.66 2.64 7 4 C6.01 4.33 5.02 4.66 4 5 C3.67 4.34 3.34 3.68 3 3 C0.97536745 2.34786708 0.97536745 2.34786708 -1 2 C-0.67 1.34 -0.34 0.68 0 0 Z " fill="#008FD5" transform="translate(78,41)"/>
<path d="M0 0 C1.65 0 3.3 0 5 0 C5 1.32 5 2.64 5 4 C3.02 4 1.04 4 -1 4 C-0.67 2.68 -0.34 1.36 0 0 Z " fill="#008CCE" transform="translate(103,14)"/>
<path d="M0 0 C0.66 0 1.32 0 2 0 C1.67 1.65 1.34 3.3 1 5 C0.34 5 -0.32 5 -1 5 C-1 5.66 -1 6.32 -1 7 C-1.99 7.33 -2.98 7.66 -4 8 C-3.40312566 4.65750371 -2.26396123 2.53563658 0 0 Z " fill="#CDE5F8" transform="translate(354,42)"/>
<path d="M0 0 C0.99 0.66 1.98 1.32 3 2 C2.67 3.32 2.34 4.64 2 6 C1.34 6 0.68 6 0 6 C0 5.34 0 4.68 0 4 C-1.32 4 -2.64 4 -4 4 C-4 3.34 -4 2.68 -4 2 C-3.01 2 -2.02 2 -1 2 C-0.67 1.34 -0.34 0.68 0 0 Z " fill="#0098D2" transform="translate(188,62)"/>
<path d="M0 0 C0.99 0 1.98 0 3 0 C2.43628586 3.26954202 1.50037734 4.82575883 -1 7 C-1.99 6.67 -2.98 6.34 -4 6 C-2.1875 3 -2.1875 3 0 0 Z " fill="#9DC4F0" transform="translate(389,6)"/>
<path d="M0 0 C0 0.99 0 1.98 0 3 C-4.34285714 7 -4.34285714 7 -7 7 C-5.66667905 3.00003714 -3.5042173 2.16217663 0 0 Z " fill="#9DC4F0" transform="translate(427,43)"/>
<path d="M0 0 C0.33 1.32 0.66 2.64 1 4 C0.01 4.33 -0.98 4.66 -2 5 C-2 5.66 -2 6.32 -2 7 C-2.99 7.33 -3.98 7.66 -5 8 C-3.8141763 4.62496331 -2.72426311 2.35277269 0 0 Z " fill="#C29AAE" transform="translate(504,42)"/>
<path d="M0 0 C1.875 0.125 1.875 0.125 4 1 C5.25 4.0625 5.25 4.0625 6 7 C5.34 7 4.68 7 4 7 C0 2.52941176 0 2.52941176 0 0 Z " fill="#D8EFFB" transform="translate(348,6)"/>
<path d="M0 0 C0 0.66 0 1.32 0 2 C-1.75 3.5078125 -1.75 3.5078125 -4 5.125 C-4.7425 5.66382813 -5.485 6.20265625 -6.25 6.7578125 C-6.8275 7.16773438 -7.405 7.57765625 -8 8 C-6.65580512 3.85539913 -4.87800266 0 0 0 Z " fill="#0096C9" transform="translate(1311,225)"/>
<path d="M0 0 C2.97 0.495 2.97 0.495 6 1 C5.01 1.495 5.01 1.495 4 2 C4 2.66 4 3.32 4 4 C2.68 4 1.36 4 0 4 C0 2.68 0 1.36 0 0 Z " fill="#9BC1EC" transform="translate(392,48)"/>
<path d="M0 0 C1.32 0.33 2.64 0.66 4 1 C3.67 1.99 3.34 2.98 3 4 C1.35 4 -0.3 4 -2 4 C-2 3.34 -2 2.68 -2 2 C-1.34 2 -0.68 2 0 2 C0 1.34 0 0.68 0 0 Z " fill="#00A2DC" transform="translate(1190,239)"/>
</svg>
